<svg width="175" height="286" viewBox="0 0 175 286" fill="none" xmlns="http://www.w3.org/2000/svg">
<path d="M8.42065 24.7177C8.42065 15.7415 15.7363 8.42346 24.7316 8.42346H150.29C159.396 8.42346 166.712 15.7415 166.712 24.7177V261.26C166.712 270.236 159.396 277.554 150.29 277.554H24.7316C15.7584 277.554 8.42065 270.236 8.42065 261.26V24.7177Z" fill="white"/>
<path d="M15.1838 52.6411V24.7176C15.1838 19.4778 19.4715 15.1887 24.7096 15.1887H150.291C155.683 15.1887 159.949 19.4778 159.949 24.7176V52.619L15.1838 52.6411ZM15.1838 59.4064H159.927V226.593H15.1838V59.4064Z" fill="black"/>
<path d="M129.427 38.9558C129.979 39.7738 131.217 40.7466 132.057 41.1667C134.399 42.4048 136.477 42.8248 138.687 42.8248C142.135 42.8248 144.213 41.2993 144.213 39.0884C144.213 36.4575 141.582 36.0374 137.582 35.5068C132.477 34.8214 129.714 32.4558 129.714 28.3214C129.847 24.1871 133.714 21.0034 139.372 21.0034C143.24 21.0034 145.87 21.8435 147.528 22.6616V28.0561C146.975 27.0833 145.738 26.398 144.5 25.8452C142.842 25.2925 141.118 25.0051 139.394 25.0051C136.632 25.0051 134.974 26.1105 134.974 27.5034C134.974 29.8469 137.184 30.1122 142.024 31.085C146.865 32.0578 149.76 34.136 149.627 38.4031C149.495 43.3775 145.627 46.6939 138.709 46.6939C135.659 46.6939 131.814 46.1412 129.449 44.9031L129.427 38.9558ZM43.6505 29.0068C43.6505 31.5051 41.573 32.4558 38.4125 32.4558H32.6219V25.4252H38.4125C41.573 25.4252 43.6505 26.3758 43.6505 29.0068ZM47.231 40.0612C45.9933 37.7177 45.0208 35.9269 43.2306 35.0867C47.0984 34.2687 49.0212 32.0578 49.0212 28.7415C49.0212 25.5578 47.6288 23.0816 45.0208 22.1088C43.3632 21.4235 41.2857 21.4235 38.103 21.4235H25.4167C26.6544 22.2415 27.3396 24.7398 27.3396 26.9507V40.9014C27.3396 42.9796 26.6544 45.5884 25.4167 46.2959H34.5226C33.2849 45.6105 32.5997 42.9796 32.5997 40.9014V36.4796H36.4675C38.4125 36.4796 39.5175 37.165 40.3353 38.6905C41.7056 40.9014 42.6781 43.9303 44.3357 46.2959H51.6513C49.4632 44.7704 48.336 42.4269 47.231 40.0612ZM66.5919 46.9813C70.0398 46.9813 72.9572 46.0085 75.1452 44.0629C77.7753 41.852 79.5655 38.5357 79.5655 33.8486C79.5655 29.2942 77.7753 25.8452 75.1452 23.6122C72.9351 21.8214 70.0398 20.8486 66.5919 20.8486C63.1441 20.8486 60.2488 21.8214 58.0165 23.6122C55.4085 25.8231 53.5962 29.2942 53.5962 33.8486C53.5962 38.5357 55.3864 41.8741 58.0165 44.0629C60.2267 46.0085 63.2767 46.9813 66.5919 46.9813ZM61.3318 40.4813C59.8067 39.0884 59.1216 36.8997 59.1216 33.8486C59.1216 30.9524 59.8067 28.7415 61.3318 27.216C62.5694 25.9779 64.3597 25.1377 66.5698 25.1377C68.78 25.1377 70.5702 25.9558 71.8079 27.216C73.3329 28.7415 74.1506 30.9303 74.1506 33.8486C74.1506 36.8997 73.3329 39.1105 71.8079 40.4813C70.5702 41.7194 68.78 42.5595 66.5698 42.5595C64.3818 42.5595 62.5694 41.7194 61.3318 40.4813ZM102.485 39.9286C101.092 41.7415 98.1971 42.2721 95.0366 42.2721H90.1964V26.9286C90.1964 24.8503 90.8815 22.2194 91.9866 21.4014H83.0134C84.2511 22.2194 84.9583 24.8503 84.9583 26.9286V40.9014C84.9583 43.1122 84.2511 45.4558 83.0134 46.2959H101.667L102.485 39.9286ZM125.006 39.9286C123.614 41.7415 120.719 42.4269 117.558 42.2721H112.585V26.9286C112.585 24.8503 113.27 22.2194 114.53 21.4014H105.557C106.795 22.2194 107.502 24.8503 107.502 26.9286V40.9014C107.502 43.1122 106.795 45.5884 105.557 46.4286H124.056L125.006 39.9286Z" fill="white"/>
<path d="M175 24.7177C175 11.0544 163.949 0 150.29 0H24.7316C11.0508 0 0 11.0544 0 24.7177V261.26C0 274.946 11.0508 286 24.7316 286H150.29C163.949 286 175 274.946 175 261.26V24.7177ZM8.42069 24.7177C8.42069 15.7415 15.7363 8.42347 24.7316 8.42347H150.29C159.396 8.42347 166.712 15.7415 166.712 24.7177V261.26C166.712 270.236 159.396 277.554 150.29 277.554H24.7316C15.7584 277.554 8.42069 270.236 8.42069 261.26V24.7177Z" fill="black"/>
<path d="M15.1838 233.359V261.26C15.1838 266.522 19.4715 270.789 24.7096 270.789H150.291C155.683 270.789 159.949 266.522 159.949 261.26V233.359H15.1838Z" fill="black"/>
<path d="M77.2228 199.93V162.765C80.8033 162.633 84.2732 162.5 87.7211 162.213C86.4834 159.316 85.2236 156.42 83.7207 153.656C81.6431 153.922 79.4551 153.922 77.2228 154.077V146.338C72.3826 147.444 67.1445 148.262 61.7517 148.815V199.93C61.7517 211.25 56.4916 214.301 53.3311 216.357H85.6435C82.6156 214.301 77.2228 211.25 77.2228 199.93ZM152.368 216.247C149.738 213.748 146.423 209.879 144.765 202.296C141.737 188.323 135.372 168.292 121.978 153.369C135.107 146.184 143.108 134.864 143.108 120.913C143.24 110.964 138.135 100.463 129.029 94.25C125.161 91.7517 120.608 89.9608 115.215 88.8554C117.16 93.0119 118.398 97.4336 118.663 101.855C124.321 106.277 127.371 113.042 127.371 121.201C127.371 131.57 122.133 143.707 103.767 149.942C105.27 152.838 106.795 155.889 108.032 158.786C109.005 158.52 109.977 158.233 110.95 157.968C119.503 167.917 126.399 183.525 128.476 198.029C130.001 208.531 126.266 213.77 123.791 216.269L152.368 216.247Z" fill="white"/>
<path d="M49.1759 137.34V79.3265H71.1228C79.1456 79.4592 85.091 81.1173 89.7765 84.4337C95.987 88.8554 99.3022 95.9082 99.3022 104.332C99.3243 118.548 89.5113 136.655 49.1759 137.34ZM120.166 199.51C117.403 197.034 114.088 193.165 112.563 185.56C109.535 171.609 103.457 151.976 91.3015 138.026C91.854 137.76 92.274 137.605 92.8044 137.34C106.618 130.287 115.061 118.548 115.061 104.177C115.193 94.0952 110.088 83.7262 100.982 77.5136C93.799 72.6718 84.1185 70.7483 71.83 70.7483H25.2842C28.4668 72.8265 33.7049 75.8554 33.7049 87.1752V183.061C33.7049 194.514 28.4668 197.432 25.2842 199.488H57.5966C54.5687 197.41 49.1759 194.514 49.1759 183.061V145.896C60.4919 145.896 71.1228 144.503 80.1181 142.16C88.2736 151.976 94.3515 167.165 96.2964 181.116C97.6667 191.639 94.0863 197.012 91.6109 199.488L120.166 199.51Z" fill="white"/>
<path d="M77.2227 129.049V96.3061H94.6166C93.3789 92.7024 91.1688 89.8061 88.1409 87.5952H53.3089C56.4915 89.6734 61.7295 92.5697 61.7295 104.044V132.918C67.5422 132.1 72.8024 130.862 77.2227 129.049ZM108.85 252.173C108.85 256.861 111.613 260.464 116.453 260.464C119.901 260.464 123.083 259.491 124.454 257.833L123.614 263.228C122.376 263.781 120.166 264.466 116.586 264.466C108.85 264.466 103.457 259.912 103.457 252.173C103.457 248.039 105.115 244.855 107.59 242.777C109.8 240.832 112.828 239.726 116.563 239.726C120.144 239.726 122.354 240.412 123.592 241.119V246.226C122.089 244.568 119.879 243.728 116.409 243.728C111.613 243.728 108.85 247.332 108.85 252.173ZM42.8106 247.464C42.8106 249.808 40.8878 250.781 37.8378 250.781H32.3124V244.148H37.8378C40.8878 244.148 42.8106 244.988 42.8106 247.464ZM46.2806 257.966C45.1755 255.755 44.203 253.964 42.5454 253.279C46.148 252.594 47.9382 250.383 48.0708 247.332C48.0708 244.148 46.7005 241.804 44.203 240.832C42.678 240.279 40.6226 240.279 37.5726 240.279H25.5493C26.6544 240.964 27.3395 243.33 27.3395 245.519V258.806C27.3395 260.73 26.6544 263.228 25.5493 264.046H34.1026C32.9975 263.228 32.3124 260.73 32.3124 258.806V254.517H35.8928C37.8378 254.517 38.9207 255.335 39.7606 256.728C40.9983 258.806 41.9708 261.702 43.4737 263.913L50.5241 264.046C48.336 262.388 47.3856 260.31 46.2806 257.966ZM64.6469 264.599C67.9622 264.599 70.7249 263.626 72.7803 261.835C75.2557 259.757 77.068 256.573 77.068 252.173C77.068 247.752 75.2557 244.568 72.7803 242.357C70.7028 240.699 67.9401 239.726 64.6469 239.726C61.4643 239.726 58.7016 240.699 56.6241 242.357C54.1487 244.568 52.3364 247.752 52.3364 252.173C52.3364 256.595 54.1266 259.779 56.6241 261.835C58.7016 263.626 61.4643 264.599 64.6469 264.599ZM59.6741 258.386C58.3038 257.126 57.5966 255.07 57.5966 252.173C57.5966 249.277 58.2817 247.199 59.6741 245.806C60.9118 244.568 62.5694 243.883 64.7796 243.883C66.8571 243.883 68.5147 244.568 69.7524 245.806C71.1227 247.199 71.8299 249.255 71.8299 252.173C71.8299 255.07 71.1448 257.148 69.7524 258.386C68.5147 259.624 66.8571 260.442 64.7796 260.442C62.5694 260.442 60.9118 259.624 59.6741 258.386ZM95.5891 240.279C96.1416 240.699 96.429 241.119 96.2742 241.65C96.2742 242.202 95.9869 243.042 95.4565 243.861L90.7489 250.626L86.0633 243.728C85.5108 242.91 84.9583 242.07 85.0909 241.384C85.2235 240.964 85.3782 240.566 85.9086 240.279H76.3829C78.0405 240.964 78.8582 242.224 80.0959 244.015L87.8536 254.915V258.784C87.8536 260.707 87.1684 263.206 86.0633 263.891H94.6166C93.5116 263.206 92.8264 260.707 92.8264 258.784V254.915L99.8768 244.966C100.982 243.595 102.507 241.097 104.164 240.257L95.5891 240.279ZM141.45 260.177H135.372V253.677H144.5L145.052 250.073H135.394V244.148H140.787C143.837 244.148 146.312 244.281 147.55 245.519V240.279H128.631C129.736 241.119 130.421 243.595 130.421 245.519V258.806C130.421 260.862 129.736 263.228 128.631 264.046H147.705L148.522 258.231C147.108 260.044 144.5 260.177 141.45 260.177Z" fill="white"/>
</svg>
