<svg width="621" height="100" viewBox="0 0 621 100" fill="none" xmlns="http://www.w3.org/2000/svg">
<path fill-rule="evenodd" clip-rule="evenodd" d="M0 97.2866L21.6106 0H60.1899L61.9514 54.3477L87.9215 0H126.593L104.894 97.2866H76.8832L88.4757 44.9791L62.4173 97.2866H42.2893L41.2691 44.9791L28.2858 97.2866H0ZM129.935 15.8567H155.994L159.517 0H133.363L129.935 15.8567ZM137.91 97.3819L111.664 97.2866L127.708 25.2253H153.954L137.91 97.3819ZM237.332 25.2253H260.796L258.755 34.128C262.003 30.1391 265.897 27.6363 270.814 25.9666C274.761 24.652 278.896 23.9937 283.056 24.0181L277.027 47.4819C275.544 47.4819 257.368 43.9555 251.71 71.6871L245.867 97.3748H221.101L237.332 25.2253Z" fill="white"/>
<path fill-rule="evenodd" clip-rule="evenodd" d="M223.607 70.6705C223.607 71.2247 215.354 100.16 179.091 99.4223C130.49 98.4022 143.106 20.4987 198.287 23.2804C229.633 24.8547 228.059 50.9167 227.78 52.0322H200.698C201.068 51.012 201.997 40.2526 193.369 40.4397C177.326 40.9056 165.917 80.6886 183.63 81.0628C191.791 81.3417 195.597 71.8813 196.338 70.6776H223.607V70.6705ZM456.301 99.7012C403.531 97.4738 419.388 19.7539 473.552 22.352C524.469 24.8548 509.996 101.833 456.301 99.7012ZM471.787 39.3207C454.261 35.7977 441.182 77.9035 457.882 81.3346C476.425 85.2318 488.858 42.7554 471.787 39.3207Z" fill="white"/>
<path fill-rule="evenodd" clip-rule="evenodd" d="M555.169 14.5613C547.929 14.5613 546.545 17.3429 545.338 22.8144L544.869 25.2254H560.175L563.98 7.79075H587.903L584.193 25.2254H596.526L592.915 41.8269H580.574L573.804 73.4521C573.529 75.2136 572.879 76.788 573.529 78.7365C574.549 81.6099 584.842 80.4097 584.842 80.4097L580.857 96.9195C580.857 96.9195 559.896 99.3305 552.843 94.4132C549.69 92.2811 546.259 87.8298 548.395 78.2776L556.461 41.9222L542.087 41.8305L529.94 97.2902H504.154L516.212 41.8305H502.946L506.656 25.2289H519.548C521.864 15.9556 523.904 9.64751 529.654 4.82554C537.54 -1.57433 558.039 0.928443 558.039 0.928443L555.169 14.5613ZM323.679 72.619L372.644 72.5273C372.644 72.5273 368.471 83.3785 383.869 83.4738C394.533 83.4738 398.706 71.3235 384.332 68.8208C377.748 67.6135 352.244 63.3458 355.121 43.6837C357.535 27.5481 374.317 21.8895 392.683 22.1684C430.246 22.6308 423.2 44.7074 423.659 46.19H398.617C398.617 46.19 401.307 36.9167 389.994 36.9167C379.7 36.9167 377.19 46.19 389.062 48.6928C403.535 51.8486 420.136 52.5899 421.058 71.2318C421.333 76.4279 418.279 100.721 380.434 99.9835C345.749 99.2422 343.341 82.9196 344.266 75.316C337.958 88.5781 322.19 100.358 301.14 99.6164C248.37 97.9467 264.414 19.7609 318.483 22.4543C343.062 23.6581 352.431 42.2999 349.459 60.663C348.996 63.9106 348.721 64.373 347.789 64.6518L323.679 72.619ZM316.535 39.2289C299.188 35.7977 286.208 77.7164 302.806 81.2428C321.176 85.0482 333.51 42.6635 316.535 39.2289ZM610.999 25.1336C623.52 25.1336 623.52 43.7755 610.999 43.7755C598.478 43.7755 598.478 25.1336 610.999 25.1336ZM610.999 26.8033C600.519 26.8033 600.519 42.014 610.999 42.014C621.568 42.014 621.568 26.8033 610.999 26.8033ZM612.669 35.5188L614.522 39.2289H612.295L610.812 35.5188H609.51L608.959 39.5077H607.007L608.585 29.5849H613.128C613.128 29.5849 615.631 30.2344 615.444 32.6454C615.172 35.5188 612.856 35.5188 612.669 35.5188ZM612.2 30.884H610.353L609.884 34.1315H611.737C611.737 34.1315 613.59 34.4104 613.777 32.5536C613.777 30.884 612.2 30.884 612.2 30.884Z" fill="white"/>
</svg>
