<svg width="307" height="100" viewBox="0 0 307 100" fill="none" xmlns="http://www.w3.org/2000/svg">
<path d="M103.756 92.8889C103.756 84.1778 104.022 83.9556 107.927 89.3778C109.347 91.3333 110.678 92.8889 110.856 92.8C111.078 92.7111 112.321 91.1556 113.608 89.3333C117.335 84.1778 117.513 84.3111 117.513 92.8444C117.513 98.8444 117.424 100 116.847 100C116.315 100 116.181 98.9333 116.093 94.1778L115.96 88.3111L113.563 91.7333C112.232 93.5996 110.989 95.1111 110.812 95.1111C110.59 95.1111 109.259 93.5556 107.883 91.6889L105.309 88.2222L105.176 94.1333C105.087 98.9333 104.954 100 104.422 100C103.845 100 103.756 98.8444 103.756 92.8889ZM135.263 99.6444C135.263 98.5333 141.387 86 141.964 85.8667C142.497 85.7778 143.517 87.5556 145.692 92.3111C147.333 95.9111 148.753 99.1551 148.887 99.4667C149.02 99.7333 148.798 100 148.355 100C147.911 100 147.156 98.9778 146.313 97.1111L145.026 94.2222H142.008L139.035 94.2667L137.749 97.1111C137.038 98.7111 136.195 100 135.885 100C135.53 100 135.263 99.8222 135.263 99.6444ZM144.139 92.6222C144.139 91.8218 142.186 88 141.92 88.3111C141.742 88.4884 141.166 89.5996 140.677 90.8L139.745 92.8889H141.964C143.162 92.8889 144.139 92.7556 144.139 92.6222ZM165.883 92.8889C165.883 86.8444 165.972 85.7778 166.549 85.7778C167.126 85.7778 167.215 86.8 167.215 92.2222V98.6667H171.43C174.892 98.6667 175.646 98.8 175.646 99.3333C175.646 99.8667 174.803 100 170.765 100H165.883V92.8889ZM192.953 92.8889C192.953 86.8444 193.041 85.7778 193.619 85.7778C194.196 85.7778 194.284 86.8 194.284 92.2222V98.6667H198.5C201.961 98.6667 202.716 98.8 202.716 99.3333C202.716 99.8667 201.873 100 197.834 100H192.953V92.8889ZM171.208 74.6222C164.153 73.4222 159.804 68.6222 158.694 60.9329C158.117 56.8444 158.649 52.2662 160.114 49.0218C161.312 46.3107 164.64 42.9329 167.348 41.7329C170.454 40.3107 177.776 40.2218 181.193 41.5107C183.9 42.5773 187.361 45.7329 188.737 48.444C191.044 52.9773 191.311 60.3996 189.358 65.5551C186.829 72.2667 179.329 76 171.208 74.6222ZM177.199 68.6667C181.016 67.8222 183.278 64.2667 183.545 58.6667C183.856 52.5333 182.391 49.0667 178.753 47.2C176.001 45.7778 172.096 45.9556 169.522 47.6444C166.682 49.5556 165.661 52.1778 165.661 57.5556C165.661 61.3333 165.838 62.3111 166.726 64.1333C167.88 66.5333 170.321 68.4004 172.894 68.8889C174.537 69.2444 174.803 69.2 177.199 68.6667ZM212.922 74.6667C208.529 73.8667 206.177 72.3111 204.402 69.0667C203.781 67.8667 203.115 66.1778 202.938 65.244C202.671 63.7333 202.716 63.644 203.914 63.3773C204.579 63.244 206.044 63.1107 207.154 63.0218C209.017 62.9329 209.15 62.9773 209.549 64.3551C210.482 67.6884 214.076 69.7333 217.937 69.1551C221.442 68.6222 223.706 65.9996 222.685 63.5551C222.019 61.9551 221.132 61.5107 215.496 59.9551C212.745 59.2436 209.682 58.1773 208.751 57.644C203.337 54.6218 202.272 47.5551 206.621 43.4662C209.106 41.1551 212.39 40.2662 217.315 40.5329C223.617 40.9329 226.856 43.0662 228.276 47.8218C228.587 48.9329 228.764 50.044 228.631 50.2662C228.498 50.4884 226.945 50.6662 225.17 50.6662H221.975L221.398 49.1107C220.644 46.9329 219.224 46.1329 216.162 46.1329C211.946 46.1329 209.816 47.5551 210.437 49.9556C210.792 51.2889 212.523 52.1778 217.582 53.5111C223.75 55.1111 226.546 56.6222 228.099 59.1111C231.694 64.9333 228.765 72.4889 222.286 74.2222C219.845 74.8444 215.141 75.1111 212.922 74.6667ZM5.90562 57.9556C2.7105 49.0218 0.0918359 41.5111 0.00352648 41.2889C-0.0852267 41.0667 1.51189 40.8889 3.59803 40.8889H7.32567L7.85774 42.7556C8.16838 43.7778 10.0322 49.3333 12.0291 55.0667L15.6236 65.5111L19.6624 53.2889L23.745 41.1111L27.3395 40.9778L30.9784 40.8444L29.4252 45.2C28.5377 47.6 25.8751 55.0667 23.4788 61.7778L19.1298 74L15.4022 74.1333L11.6746 74.2222L5.90562 57.9556ZM36.2592 73.2444C37.2803 70.6227 48.4184 41.9111 48.5964 41.4222C48.7734 41.0222 49.7941 40.8889 52.4127 40.9778L56.0073 41.1111L62.5754 57.5556C66.1699 66.5778 69.1432 74.0444 69.1432 74.0889C69.1432 74.1778 67.5012 74.2222 65.4599 74.2222H61.821L60.4449 70.5778L59.0692 66.8889L52.4127 66.7556L45.7563 66.6222L44.425 70.3111L43.138 74L39.4996 74.1333C35.8598 74.2667 35.8598 74.2667 36.2592 73.2444ZM56.6281 60.5333C56.5837 60.3111 55.6074 57.7333 54.498 54.7556C53.3886 51.7778 52.3679 49.3333 52.2348 49.3333C52.1017 49.3333 51.791 50 51.5248 50.8C51.2585 51.5556 50.3266 54.1782 49.4834 56.5778L47.8859 60.8889H52.3236C54.7643 60.8889 56.7168 60.7111 56.6281 60.5333ZM81.124 57.7778V41.3333H88.2242V68.8889H104.644V74.2222H81.124V57.7778ZM117.957 57.5111V40.8L126.965 40.9778C137.172 41.2 138.68 41.6 141.698 44.9778C147.333 51.2 147.112 64.9778 141.343 70.7556C138.458 73.6444 136.017 74.2222 126.388 74.2222H117.957V57.5111ZM135.263 67.7778C137.659 66.5333 138.592 63.8222 138.592 57.7778C138.592 53.3778 138.458 52.4 137.615 50.6667C136.107 47.6444 134.598 46.9333 129.184 46.7556L124.613 46.5778V69.0222L129.228 68.7556C132.201 68.5778 134.376 68.2222 135.263 67.7778ZM251.086 60.4444V46.6667H241.324V40.8889H267.949V46.6667H257.743V74.2222H251.086V60.4444ZM273.718 74.1333C273.718 74.0444 276.603 66.6227 280.108 57.5556L286.498 41.1111H293.776L299.633 55.7778C302.873 63.8667 305.846 71.2889 306.246 72.3556L307 74.2222H299.589L298.169 70.4444L296.705 66.6667H283.57L282.238 70.3556L280.907 74L277.312 74.1333C275.36 74.2222 273.718 74.2222 273.718 74.1333ZM294.087 59.6889C293.821 58.9778 292.934 56.5333 292.09 54.2222C291.248 51.9111 290.36 49.8222 290.182 49.6444C290.005 49.4667 289.028 51.5556 288.008 54.3111C287.032 57.0667 286.1 59.6889 285.922 60.1333C285.612 60.8 286.011 60.8889 290.093 60.8889H294.575L294.087 59.6889ZM152.792 33.2889C147.733 29.4667 113.031 9.77778 98.0315 2.26667C87.2036 -3.2 103.046 3.24444 121.507 11.8222C133 17.1556 144.716 23.3333 150.706 27.2C154.035 29.3778 155.055 29.8222 155.632 29.4667C168.324 21.2889 184.388 13.1556 207.686 3.15556C211.769 1.42222 215.23 0 215.452 0C215.629 0 210.926 2.62222 204.935 5.82222C184.078 16.9778 166.993 26.7111 159.138 31.8222C156.787 33.3778 154.79 34.6667 154.701 34.6667C154.612 34.6667 153.768 34.0444 152.792 33.2889Z" fill="white"/>
</svg>
