<svg width="651" height="286" viewBox="0 0 651 286" fill="none" xmlns="http://www.w3.org/2000/svg">
<path d="M400.691 208.866H477.302C495.191 208.866 516.271 216.053 516.271 244.475C516.271 275.354 497.013 283.36 477.302 283.36H400.691V268.45H415.318V223.791H400.691V208.866ZM445.082 268.436H465.908C478.177 268.436 484.912 258.99 484.912 246.113C484.912 234.959 479.039 223.791 466.134 223.791H445.096L445.082 268.436ZM197.416 206.367C211.422 206.367 255.093 208.16 255.093 246.127C255.093 284.108 211.62 286 197.416 286C183.198 286 139.527 284.306 139.527 246.127C139.541 208.499 183.409 206.367 197.416 206.367ZM172.509 246.141C172.509 264.539 183.776 271.076 197.416 271.076C211.267 271.076 222.322 264.327 222.322 246.141C222.322 227.73 211.055 221.207 197.416 221.207C183.551 221.207 172.509 228.167 172.509 246.141ZM0 268.478H14.6699V223.847H0V208.824H58.9338V223.847H44.2922V238.573H89.2197V223.847H74.5921V208.824H133.469V223.847H118.8V268.478H133.469V283.388H74.5921V268.478H89.2197V253.286H44.2922V268.478H58.9338V283.388H0V268.478ZM307.814 283.346H261.136V268.52H275.622L275.636 223.776H261.136V208.852H319.943L361.595 264.736V223.776H347.038V208.852H394.012L393.998 223.776H379.512V283.346H335.163L293.413 227.363V268.52H307.814V283.346ZM650.108 268.52V283.36H586.416V268.52H601.227L595.537 257.931H556.271L550.652 268.52H565.336V283.36H516.907V268.52H531.52L557.062 223.791H539.328V208.866H600.973L635.622 268.534L650.108 268.52ZM588.054 243.981L575.869 221.136L563.698 243.981H588.054ZM315.975 107.25C313.857 107.25 311.725 107.363 310.045 107.589C302.068 108.662 299.074 110.737 296.265 116.032C294.443 119.449 290.786 129.799 287.864 142.986C282.142 142.786 276.423 142.503 270.709 142.139C268.718 123.614 264.129 46.5089 264.002 20.0494C267.236 19.8376 270.666 19.5552 274.45 19.3999C276.738 31.6272 284.362 74.2392 290.603 87.6384C293.37 93.6108 298.199 95.644 304.115 96.0958C312.021 96.5053 319.943 96.5053 327.85 96.0958C333.751 95.644 338.58 93.6108 341.348 87.6384C347.574 74.2392 355.199 31.6413 357.5 19.3999C361.284 19.5693 364.729 19.8376 367.948 20.0494C367.821 46.523 363.247 123.614 361.228 142.139C356.116 142.478 350.214 142.76 344.073 142.986C341.15 129.784 337.493 119.449 335.672 116.032C332.876 110.737 329.883 108.662 321.891 107.589C319.928 107.35 317.952 107.237 315.975 107.25Z" fill="white"/>
<path d="M315.975 163.021C300.063 163.021 263.692 162.047 251.718 159.802C238.997 157.416 230.413 150.116 226.205 138.115C222.605 127.878 219.95 108.874 218.312 81.6235C217.296 64.5533 217.31 49.2198 218.355 36.0889C220.162 13.7381 230.483 4.82879 252.071 2.38616C266.501 0.77656 298.75 0 315.975 0C333.201 0 365.449 0.77656 379.851 2.40028C401.439 4.84291 411.775 13.7522 413.568 36.103C414.627 49.2339 414.641 64.5674 413.624 81.6376C412 108.888 409.346 127.892 405.746 138.129C401.524 150.13 392.954 157.416 380.204 159.816C368.273 162.047 331.888 163.021 315.975 163.021ZM378.397 150.088C382.464 149.322 386.263 147.515 389.423 144.842C392.584 142.169 394.997 138.723 396.427 134.839C398.686 128.387 401.806 113.83 403.769 81.0164C404.771 64.398 404.757 49.5445 403.727 36.8654C402.512 21.7013 394.86 14.0204 378.75 12.1991C364.715 10.6177 332.989 9.88349 315.975 9.88349C298.962 9.88349 267.236 10.6177 253.187 12.2132C237.091 14.0346 229.438 21.7154 228.21 36.8795C227.193 49.5587 227.193 64.4121 228.182 81.0305C230.144 113.844 233.265 128.387 235.524 134.853C237.698 141.037 243.769 148.252 253.54 150.102C263.607 151.98 296.688 153.152 315.975 153.152C335.262 153.152 368.33 151.98 378.397 150.088Z" fill="white"/>
</svg>
