<svg width="478" height="286" viewBox="0 0 478 286" fill="none" xmlns="http://www.w3.org/2000/svg">
<path fill-rule="evenodd" clip-rule="evenodd" d="M192.544 77.4102C194.555 77.4102 196.175 75.7764 196.175 73.7681C196.188 73.2824 196.104 72.7991 195.927 72.3467C195.75 71.8942 195.485 71.4818 195.146 71.1337C194.807 70.7857 194.402 70.509 193.954 70.3201C193.506 70.1312 193.026 70.0339 192.54 70.0339C192.054 70.0339 191.573 70.1312 191.126 70.3201C190.678 70.509 190.273 70.7857 189.934 71.1337C189.595 71.4818 189.329 71.8942 189.152 72.3467C188.976 72.7991 188.891 73.2824 188.904 73.7681C188.904 75.7764 190.522 77.4102 192.544 77.4102ZM236.504 152.045C241.905 152.045 245.539 151.317 248.466 150.237C251.377 149.155 253.614 147.852 255.243 146.517C256.788 145.253 257.769 143.97 259.418 143.127C260.873 142.375 262.92 142.198 265.217 142.198C268.516 142.198 272.228 143.218 274.942 144.711L275.332 139.662C273.524 138.77 267.15 136.535 261.614 136.535C255.324 136.535 252.946 138.231 250.623 140.328C247.92 142.779 244.504 145.692 235.268 145.692C232.807 145.692 226.902 145.026 224.503 145.026C223.047 145.026 221.928 145.39 221.928 145.39C222.368 146.772 223.309 150.578 223.309 150.578C225.521 150.854 229.379 152.045 236.504 152.045ZM208.111 137.071C209.982 137.071 215.421 137.901 221.704 138.504C225.273 138.84 229.092 139.105 232.698 139.105C239.756 139.105 247.485 135.749 254.319 132.245L252.982 127.383C249.79 129.131 243.716 131.074 238.653 131.881C237.407 132.084 233.788 132.133 232.758 131.969C231.051 131.704 229.004 131.09 226.803 130.689C223.712 130.109 220.336 129.971 218.335 129.883C216.126 129.784 212.167 130.159 210.221 130.286C203.072 130.713 198.348 132.396 193.826 135.447C191.542 136.993 188.626 139.516 186.375 142.57C187.533 142.656 190.834 143.577 190.834 143.577C195.71 139.43 203.036 137.071 208.111 137.071Z" fill="white"/>
<path fill-rule="evenodd" clip-rule="evenodd" d="M121.965 139.42C125.445 139.42 126.842 140.549 128.762 141.704C130.107 142.534 131.164 143.45 132.168 144.358C134.317 146.278 133.703 148.039 132.017 149.368C131.151 150.058 130.409 150.888 128.224 152.308C127.17 153.003 125.349 154.119 124.106 154.644C121.918 155.549 120.966 155.651 120.172 155.651C119.368 155.651 118.088 155.526 117.37 154.811L111.806 158.213C113.476 159.517 115.372 159.959 118.564 159.959C122.17 159.959 125.047 159.181 128.601 157.789C133.208 155.966 138.388 152.383 140.108 151.403C143.627 149.392 147.181 148.086 150.987 148.086C154.34 148.086 158.121 150.071 162.356 152.095C167.356 154.493 173.462 156.842 179.076 156.842C182.442 156.842 186.212 156.351 190.158 155.547C197.167 154.116 204.703 151.754 212.079 149.254L209.683 144.948C207.885 145.612 201.727 147.344 195.106 148.817C189.617 150.021 184.05 151.111 181.162 151.111C178.803 151.111 176.024 150.94 173.537 150.172C169.315 148.903 165.522 147.571 165.522 144.178C165.522 141.832 166.526 140.172 169.367 139.03C173.964 137.183 181.126 137.297 184.893 137.297C185.598 136.543 188.449 133.114 188.449 133.114C185.43 132.506 182.358 132.195 179.279 132.185C174.557 132.185 170.194 132.789 166.578 134.308C163.225 135.718 160.587 137.752 158.677 140.502C157.91 141.595 157.119 142.636 155.966 142.636C154.054 142.636 150.737 141.077 147.272 141.077C145.763 141.077 144.483 141.389 143.151 141.389C139.645 141.389 135.074 138.84 131.002 136.668C128.44 135.299 125.802 134.017 122.737 134.017C121.468 134.017 119.725 134.331 118.177 134.984C115.201 136.228 112.183 138.239 110.664 139.506L113.39 141.379C114.979 140.549 117.872 139.42 121.965 139.42ZM368.089 178.526C354.985 167.475 342.308 155.383 333.369 145.497C317.932 128.452 296.901 95.9252 289.718 77.5195C287.065 70.7477 281.589 73.0475 284.393 79.9337C291.175 96.5678 306.816 121.027 323.145 141.192C319.339 139.506 314.62 137.243 312.068 136.116C311.199 137.537 309.05 140.349 306.839 142.659C304.279 145.323 301.641 147.482 300.824 148.237C299.027 149.909 297.71 150.034 296.501 148.177C295.952 147.295 294.784 145.716 294.177 142.974L290.707 138.58C288.847 136.244 280.134 124.323 277.465 120.314C274.804 116.321 271.352 112.047 265.758 112.047C258.838 112.047 256.45 119.711 255.912 126.706L260.506 124.708C261.578 120.374 263.703 118.114 265.761 118.114C267.228 118.114 269.028 120.249 269.028 121.844C268.363 123.717 267.153 127.586 266.565 130.575L271.092 132.11C271.092 129.909 272.015 125.913 273.287 123.842C273.287 123.842 274.541 124.909 275.009 125.778C275.309 126.34 277.546 129.758 280.137 134.305C282.45 138.364 285.02 143.377 287.382 147.37C288.524 149.293 289.835 151.015 290.71 152.37C291.878 154.158 292.926 155.409 294.037 156.041C295.078 156.616 296.201 156.632 297.107 156.632C300.033 156.632 301.376 155.661 303.361 153.97C307.081 150.763 310.286 146.306 313.6 142.31L321.415 145.838C324.437 147.275 327.487 148.654 330.562 149.972C337.225 157.537 344.683 164.949 352.509 171.996L357.824 176.682C359.273 177.936 360.724 179.166 362.199 180.386L368.089 178.526Z" fill="white"/>
<path fill-rule="evenodd" clip-rule="evenodd" d="M397.421 176.255C384.036 146.957 366.401 110.926 351.314 88.8542L347.792 83.9035C342.755 77.111 337.305 71.4787 331.964 66.0155L327.817 61.9337C317.365 51.806 305.634 41.6808 296.696 34.4668C288.81 28.1139 283.204 13.4622 265.142 13.4622C248.861 13.4622 243.294 24.529 241.473 31.0146C240.263 35.2707 239.74 36.7406 238.606 38.3379L228.265 50.6509L240.464 49.6701L234.282 59.9331C237.826 59.1943 259.218 54.8966 263.617 61.8062C268.958 70.1623 265.313 79.2312 275.298 98.2405L279.617 105.754C284.585 113.746 290.47 121.594 295.699 127.789L290.699 138.58L294.169 142.974L301.943 126.581C297.975 123.038 286.1 107.07 281.19 98.1885C270.033 77.9877 274.416 67.5972 267.608 58.3384C261.302 49.7456 243.265 53.8039 243.265 53.8039L249.918 44.4723L238.403 45.8771L243.729 39.4722C244.863 37.815 245.126 36.8108 245.589 35.2109C247.849 27.0109 253.778 18.8811 265.035 18.8811C278.703 18.8811 282.611 29.3731 292.112 37.7265C301.729 46.1945 321.896 62.4748 340.346 83.5289C355.225 100.501 374.294 139.961 388.943 171.106C372.928 163.302 345.804 136.47 334.444 116.368L329.082 115.741C341.28 138.881 367.459 165.825 393.352 180.495L397.421 176.255Z" fill="white"/>
<path fill-rule="evenodd" clip-rule="evenodd" d="M360.334 79.533C364.603 76.4658 369.658 73.9657 374.983 71.9444C378.261 75.9143 385.988 79.3925 392.117 80.2094L391.136 86.695C384.338 83.2636 372.322 79.7697 360.334 79.533L354.959 84.1533C371.224 84.4551 381.578 87.7486 394.984 93.3887L397.645 76.2655C392.33 75.5371 383.951 74.0178 381.05 69.897C393.311 66.1638 406.035 64.7564 413.548 64.8604V43.7647C410.195 45.7262 405.972 47.5603 401.99 48.7934C397.117 50.2867 392.687 50.9423 391.466 48.7934C390.119 46.4313 396.841 42.222 403.769 38.5408L388.175 25.5879C385.813 28.7669 380.446 37.6615 374.975 43.5384C371.089 47.7112 367.085 50.448 364.798 48.7414C363.599 47.8361 363.552 45.2242 364.543 41.9332C366.44 35.6115 371.427 26.8314 374.465 22.963L352.912 20.926C352.912 29.7347 348.775 39.4332 343.684 47.2715C339.293 54.0173 332.922 58.9212 327.82 61.9337L331.967 66.0155C338.273 61.6319 344.415 56.2676 349.166 48.6269C352.987 42.4847 356.538 35.06 357.87 26.3657L365.334 27.232C362.231 32.9216 358.724 41.7563 358.458 47.5343C358.646 51.4652 359.403 52.1676 361.427 53.6635C365.17 56.4653 369.806 54.5818 374.226 50.7992C379.099 46.6394 383.891 39.6673 388.753 33.3586L395.054 38.6137C387.067 43.5358 384.806 48.8012 387.244 52.2925C388.194 53.6479 390.246 54.6677 392.793 54.7431C395.319 54.8055 398.311 54.0615 401.578 53.2837C403.876 52.7295 406.365 51.9283 408.662 51.2233V59.6158C390.512 60.9113 359.533 68.258 347.797 83.8983L351.32 88.849C352.337 87.1789 353.565 85.6179 354.962 84.1481L360.334 79.533ZM122.984 38.3015L125.422 40.133C131.806 34.9325 139.267 25.4734 143.477 16.5658L141.302 15.0205C137.23 18.7537 127.519 30.9236 122.984 38.3015Z" fill="white"/>
<path fill-rule="evenodd" clip-rule="evenodd" d="M119.241 32.6094C115.661 19.9738 124.842 12.4086 134.428 13.111C138.024 6.18832 143.661 4.80691 149.655 8.39961C155.233 11.7556 154.767 20.2834 150.118 24.2793C151.778 31.8783 145.032 42.7084 134.556 42.1699C135.799 52.6593 122.932 58.6272 115.133 51.7773C108.65 46.0904 110.005 36.6183 119.241 32.6094ZM114.805 30.6764C111.478 31.4048 109.742 33.075 108.26 36.6833C109.253 28.4781 103.801 20.6137 94.8175 21.2173C95.6969 6.55773 81.1752 -2.17296 68.3341 4.96301C60.748 -1.53299 52.2671 -0.214016 47.1655 5.82931C42.2903 11.6073 42.4542 21.3552 52.3061 26.5582C49.8165 36.6833 59.0909 46.746 69.9938 44.4072C70.6208 47.5239 72.9076 49.194 75.9227 50.4376C71.3883 50.7029 69.5282 55.2114 69.5282 55.2114C55.0689 51.5068 47.6078 61.1168 47.3658 71.2029C36.8141 74.408 33.8613 87.5977 41.9417 95.3008C50.2951 103.29 60.259 100.012 64.6035 91.8433C73.9247 95.3866 83.9016 89.6321 84.1617 79.3326C94.5522 80.3108 98.5351 72.1212 97.5674 63.492L94.2738 63.2266C92.856 71.2419 89.0474 74.6967 80.3531 74.6967C79.9759 82.3972 71.7473 89.0805 62.426 87.3115C59.8115 93.4667 52.137 95.4751 46.8976 90.3267C41.6711 85.1756 43.4037 75.4902 52.6261 73.742C52.2489 64.2959 61.4427 58.4424 74.5725 59.0694C78.3031 54.4465 81.3183 52.485 86.9089 53.0261L86.961 50.3387C81.7215 49.6337 75.816 44.67 75.379 39.3343C64.1977 40.224 56.544 33.8165 56.9238 23.7668C49.7384 20.4004 51.0314 13.0251 53.3571 10.2259C57.3635 5.38965 62.9645 5.77728 67.4912 9.68476C80.2672 4.79911 90.5536 14.8852 90.5536 25.9026C90.5536 25.9026 96.5241 25.7882 99.8775 29.282C104.313 33.9179 104.313 37.9503 105.367 42.4457C106.36 46.6914 108.496 52.3341 113.71 56.4029C122.93 63.5908 137.217 61.6423 138.674 46.4807C150.945 47.5707 159.013 37.9373 154.967 26.155C163.56 20.0232 161.851 7.38502 153.773 2.49676C151.96 1.29919 149.909 0.507644 147.761 0.176321C145.613 -0.155003 143.419 -0.0182757 141.329 0.577131C139.239 1.17254 137.302 2.21257 135.651 3.62602C134 5.03946 132.675 6.79295 131.764 8.76642C119.189 5.87614 108.939 18.4155 114.805 30.6764ZM171.539 104.13C172.645 99.7077 166.815 99.0522 166.011 103.126C165.157 107.486 159.856 114.924 154.832 119.583L156.627 121.519C163.222 116.592 170.121 109.773 171.539 104.13ZM200.822 31.0771C201.78 31.0411 202.687 30.6351 203.353 29.9443C204.018 29.2535 204.39 28.3317 204.39 27.3725C204.39 26.4133 204.018 25.4915 203.353 24.8007C202.687 24.1099 201.78 23.7039 200.822 23.6679C198.774 23.6679 197.13 25.3381 197.13 27.3725C197.13 29.4199 198.774 31.0771 200.822 31.0771ZM255.37 34.4564C255.398 33.3099 255.873 32.2198 256.694 31.4188C257.515 30.6177 258.616 30.1694 259.763 30.1694C260.91 30.1694 262.011 30.6177 262.832 31.4188C263.653 32.2198 264.128 33.3099 264.156 34.4564C264.157 35.0345 264.045 35.6071 263.825 36.1417C263.605 36.6763 263.282 37.1623 262.874 37.5718C262.467 37.9814 261.982 38.3065 261.448 38.5286C260.915 38.7507 260.342 38.8653 259.764 38.866C257.345 38.866 255.37 36.8941 255.37 34.4564ZM248.409 113.488C219.818 111.292 191.352 113.087 191.352 113.087L193.358 107.848C220.695 105.863 248.812 107.848 248.812 107.848L248.409 113.488Z" fill="white"/>
<path fill-rule="evenodd" clip-rule="evenodd" d="M75.634 133.39C75.634 133.39 77.2547 135.554 79.7808 138.242C80.6367 139.449 81.5758 140.312 82.7673 141.434C88.0094 146.546 95.7203 150.378 103.673 151.91C105.934 152.342 107.945 152.677 110.182 152.677C113.575 152.677 116.699 150.856 118.697 149.069L115.583 145.437C114.579 145.737 112.492 145.737 111.111 145.737C99.5783 145.737 84.9448 138.19 81.5758 129.443C81.235 128.59 80.8344 128.114 81.1752 127.307C81.5004 126.503 81.9296 124.81 82.1664 123.252C82.8454 124.029 84.2372 125.198 86.0088 126.34C90.3065 129.092 98.4727 132.898 100.067 133.918C103.413 132.961 106.654 131.668 109.74 130.06C112.138 128.816 115.419 127.698 119.212 127.698C127.641 127.698 137.326 132.495 146.424 136.98L152.642 134.542C144.564 128.853 127.004 120.9 117.23 120.9C111.475 120.9 106.059 125.122 102.206 125.122C97.4685 125.122 83.9016 118.501 83.9016 112.986C83.9016 108.74 92.6817 106.326 106.8 104.591C104.337 108.224 102.029 111.958 99.8801 115.785L103.473 117.783C125.583 85.7091 148.573 64.8839 167.92 52.2067C174.955 47.5942 176.552 44.8964 179 39.8573C184.994 27.5963 190.647 18.1606 200.483 18.1606C205.067 18.1606 208.824 20.7491 211.402 23.9412L218.512 26.077L211.311 30.9627L218.676 33.9024C209.063 36.6028 195.936 45.963 190.611 59.6939C180.371 60.235 175.433 68.539 172.093 75.4981C169.83 80.186 166.24 82.0565 161 85.6128L119.129 114.846L124.894 115.65L163.573 89.6946C171.214 84.5462 174.83 80.7506 176.667 77.0798C180.246 69.8944 184.117 64.5561 191.706 64.5561C195.437 64.5561 199.417 66.1508 202.609 69.179L209.404 71.3903L201.992 75.9247L208.21 79.7594C190.447 85.3266 179.453 98.0637 173.071 122.409L177.77 123.465C180.119 115.413 182.455 108.014 186.612 101.479C196.888 101.368 207.307 100.99 217.518 100.99C244.78 100.99 267.415 102.145 279.627 105.751L275.308 98.238C262.246 96.0007 243.286 94.8586 217.521 94.8586C208.892 94.8586 200.132 95.1708 191.441 95.2722C197.057 89.3304 205.122 84.3172 217.56 80.4618L208.741 75.5995L218.538 70.1468L205.184 65.1701C202.848 63.0732 199.945 61.1507 196.292 60.2194C200.575 47.0661 215.135 39.3786 229.105 34.0767L219.321 30.0678L229.181 24.667L213.993 19.8152C210.023 15.1428 206.217 13.0174 200.361 13.0174C186.266 13.0174 180.337 25.2654 174.76 36.1215C171.807 41.85 169.96 44.2617 164.96 47.5292C154.117 54.6261 140.31 65.4797 127.123 79.3874C120.237 74.4159 106.152 59.863 102.349 51.9257C100.84 53.7962 99.3468 57.8702 99.3468 57.8702C100.793 59.3869 117.362 76.1589 123.528 83.2688C123.062 83.7839 122.602 84.299 122.136 84.8271C115.565 86.1331 98.5065 87.7799 92.6999 86.989L89.435 92.7826C93.7665 92.3559 110.728 90.3554 117.763 89.9417C115.607 92.561 113.516 95.2336 111.493 97.957C89.6978 100.444 75.124 104.916 75.124 112.983C75.124 114.315 75.6626 115.822 75.6626 117.239C75.6626 120.619 74.393 121.865 71.9944 123.371C70.4361 124.365 70.3346 125.044 71.0032 125.973C74.6194 131.816 63.3886 134.716 71.214 145.169L77.8478 145.57C77.8452 145.573 71.3753 141.808 75.634 133.39ZM67.0359 17.3411L64.8767 19.5524C67.9803 23.988 81.7241 36.301 88.6936 40.8745L91.2561 37.6954C86.6852 32.3181 73.6932 20.7231 67.0359 17.3411ZM57.5508 79.4056L59.5852 81.6273C64.8246 79.0908 74.6714 71.8039 79.9993 66.3407L78.532 64.1659C72.2728 66.7804 62.6003 73.9398 57.5508 79.4056Z" fill="white"/>
<path fill-rule="evenodd" clip-rule="evenodd" d="M361.068 170.183C361.069 169.273 360.89 168.373 360.543 167.532C360.196 166.691 359.686 165.927 359.044 165.284C358.401 164.64 357.638 164.129 356.798 163.781C355.958 163.432 355.057 163.253 354.148 163.252L343.9 163.247C342.989 163.249 342.088 163.43 341.247 163.781C340.406 164.131 339.642 164.643 339 165.289C338.357 165.935 337.848 166.7 337.501 167.543C337.155 168.385 336.978 169.288 336.98 170.199L336.985 277.394C336.983 278.304 337.161 279.206 337.508 280.047C337.854 280.889 338.364 281.653 339.007 282.297C339.649 282.942 340.413 283.453 341.254 283.802C342.094 284.15 342.995 284.33 343.905 284.33H354.153C355.063 284.328 355.964 284.146 356.804 283.796C357.644 283.446 358.407 282.934 359.049 282.289C359.691 281.644 360.2 280.879 360.546 280.037C360.892 279.196 361.07 278.294 361.068 277.384V170.183ZM374.13 173.034V178.131C374.132 178.633 374.232 179.13 374.426 179.593C374.62 180.056 374.903 180.477 375.259 180.831C375.615 181.185 376.038 181.465 376.503 181.656C376.967 181.846 377.465 181.944 377.967 181.942H448.682C451.902 181.942 454.519 179.34 454.519 176.114V167.483C454.519 164.262 451.871 161.34 448.666 161.655C448.666 161.655 380.316 168.362 378.11 168.612C375.563 168.893 374.13 170.924 374.13 173.034ZM316.886 284.335C299.295 284.335 288.222 270.997 288.222 256.145L288.207 213.256H283.17C282.533 213.257 281.901 213.133 281.312 212.889C280.722 212.646 280.187 212.289 279.735 211.838C279.284 211.387 278.926 210.852 278.682 210.263C278.438 209.674 278.313 209.042 278.313 208.404V201.224C278.313 198.542 280.499 196.388 283.176 196.388L288.207 196.393L288.196 170.022C288.195 169.134 288.368 168.256 288.706 167.436C289.045 166.615 289.542 165.87 290.169 165.242C290.795 164.615 291.54 164.117 292.359 163.777C293.179 163.437 294.058 163.263 294.945 163.263H304.94C306.733 163.268 308.45 163.985 309.716 165.256C310.981 166.526 311.69 168.247 311.688 170.04L311.693 196.391H327.276C329.964 196.391 332.149 198.55 332.149 201.232V208.412C332.149 209.049 332.023 209.68 331.778 210.268C331.534 210.856 331.176 211.391 330.725 211.84C330.274 212.29 329.738 212.646 329.149 212.889C328.56 213.131 327.929 213.255 327.292 213.254H311.693L311.704 252.927C311.704 260.716 316.423 266.031 324.865 266.031L326.283 266.02C329.194 266.02 331.561 268.367 331.561 271.278V279.072C331.562 279.764 331.425 280.449 331.16 281.088C330.895 281.727 330.506 282.308 330.017 282.796C329.527 283.285 328.945 283.672 328.305 283.935C327.665 284.198 326.98 284.332 326.288 284.33H316.886V284.335ZM152.147 193.303C123.71 193.303 107.76 215.559 107.76 239.006C107.76 263.994 124.844 286 152.332 286C171.146 286 189.693 276.086 193.197 259.803C193.67 257.607 192.19 254.727 189.094 254.717H175.652C173.212 254.717 171.217 255.885 170.015 257.649C166.17 263.289 160.532 266.291 152.199 266.291C140.425 266.291 132.261 257.014 131.647 246.725H188.821C194.086 246.725 196.438 243.868 196.438 239.001C196.443 216.136 182.908 193.303 152.147 193.303ZM152.147 211.656C162.645 211.656 171.706 219.125 172.624 229.232H131.827C132.743 219.125 141.65 211.656 152.147 211.656ZM412.669 193.303C384.234 193.303 368.284 215.559 368.284 239.006C368.284 263.994 385.371 286 412.856 286C431.67 286 450.216 276.086 453.723 259.803C454.197 257.607 452.717 254.727 449.623 254.717H436.179C433.738 254.717 431.743 255.885 430.539 257.649C426.696 263.289 421.056 266.291 412.723 266.291C400.952 266.291 392.791 257.014 392.171 246.725H449.35C454.613 246.725 456.967 243.868 456.967 239.001C456.967 216.136 443.432 193.303 412.669 193.303ZM412.669 211.656C423.171 211.656 432.232 219.125 433.151 229.232H392.348C393.264 219.125 402.172 211.656 412.669 211.656Z" fill="white"/>
<path fill-rule="evenodd" clip-rule="evenodd" d="M268.976 164.457H83.782C82.7816 164.457 81.791 164.654 80.8669 165.037C79.9429 165.421 79.1034 165.982 78.3967 166.69C77.6899 167.398 77.1296 168.239 76.748 169.163C76.3664 170.088 76.1708 171.079 76.1725 172.079L76.8099 244.815C76.8099 244.815 36.9026 172.735 34.8213 169.056C32.8676 165.596 28.6661 162.41 22.8518 162.41H7.62245C6.62102 162.41 5.6294 162.607 4.70426 162.99C3.77913 163.374 2.9386 163.936 2.23073 164.644C1.52285 165.352 0.96149 166.193 0.578732 167.119C0.195974 168.044 -0.000681796 169.036 1.77595e-06 170.037L0.00780577 276.705C0.00712226 277.706 0.203607 278.697 0.586039 279.622C0.968472 280.547 1.52936 281.388 2.23669 282.096C2.94402 282.804 3.78393 283.366 4.70846 283.75C5.633 284.134 6.62406 284.332 7.62506 284.332H17.3938C19.417 284.328 21.3555 283.519 22.7829 282.086C24.2104 280.652 25.01 278.71 25.0058 276.687L24.3919 201.914C24.3919 201.914 64.6842 274.715 66.409 277.581C68.7322 281.458 72.6657 284.335 78.3682 284.335H92.3592C93.36 284.334 94.351 284.136 95.2754 283.753C96.1997 283.369 97.0395 282.807 97.7466 282.099C98.4537 281.39 99.0144 280.55 99.3965 279.624C99.7787 278.699 99.9748 277.708 99.9738 276.707L99.9686 182.535L268.987 182.54C269.67 182.542 270.347 182.409 270.979 182.149C271.612 181.889 272.186 181.507 272.67 181.025C273.155 180.543 273.539 179.97 273.802 179.339C274.064 178.708 274.2 178.031 274.2 177.347V169.655C274.196 168.273 273.644 166.949 272.664 165.975C271.685 165 270.358 164.454 268.976 164.457Z" fill="white"/>
<path fill-rule="evenodd" clip-rule="evenodd" d="M239.004 210.767C247.059 210.767 253.078 213.688 255.248 218.732C256.289 221.157 258.308 221.623 261.081 221.623H272.153C273.982 221.623 276.086 220.049 276.086 217.655C276.086 204.786 260.737 193.292 238.989 193.292C216.504 193.292 201.735 204.003 201.735 221.071C201.735 234.126 212.052 241.894 224.735 245.211C230.515 246.72 240.386 249.16 245.191 250.424C250.373 251.78 255.006 253.367 255.006 257.802C255.006 264.808 247.623 267.191 239.558 267.191C231.918 267.191 224.308 263.78 222.126 258.33C220.864 255.175 218.65 254.717 215.294 254.717H204.032C202.068 254.717 199.807 256.403 199.807 258.965V260.419C199.807 272.878 216.522 285.927 239.579 285.927C255.93 285.927 278.709 279.129 278.709 257.204C278.709 244.506 270.212 235.715 256.388 232.201C250.982 230.83 237.984 227.526 235.157 226.795C230.117 225.489 225.414 223.847 225.414 219.529C225.416 212.986 231.462 210.767 239.004 210.767Z" fill="white"/>
<path fill-rule="evenodd" clip-rule="evenodd" d="M361.067 170.183C361.069 169.273 360.89 168.373 360.543 167.532C360.196 166.691 359.686 165.927 359.044 165.284C358.401 164.64 357.638 164.129 356.798 163.781C355.958 163.432 355.057 163.253 354.147 163.252L343.9 163.247C342.989 163.249 342.088 163.43 341.247 163.781C340.406 164.131 339.642 164.643 339 165.289C338.357 165.935 337.848 166.7 337.501 167.543C337.155 168.385 336.978 169.288 336.98 170.199L336.985 277.394C336.983 278.304 337.161 279.206 337.507 280.047C337.854 280.889 338.364 281.653 339.007 282.297C339.649 282.942 340.413 283.453 341.253 283.802C342.094 284.15 342.995 284.33 343.905 284.33H354.153C355.063 284.328 355.964 284.146 356.804 283.796C357.644 283.446 358.407 282.934 359.049 282.289C359.691 281.644 360.2 280.879 360.546 280.037C360.892 279.196 361.07 278.294 361.067 277.384V170.183ZM374.13 173.034V178.131C374.131 178.633 374.232 179.13 374.426 179.593C374.62 180.056 374.903 180.477 375.259 180.831C375.615 181.185 376.038 181.465 376.502 181.656C376.967 181.846 377.465 181.944 377.967 181.942H448.681C451.902 181.942 454.519 179.34 454.519 176.114V167.483C454.519 164.262 451.871 161.34 448.666 161.655C448.666 161.655 380.316 168.362 378.11 168.612C375.563 168.893 374.13 170.924 374.13 173.034ZM316.886 284.335C299.294 284.335 288.222 270.997 288.222 256.145L288.207 213.256H283.17C282.532 213.257 281.901 213.133 281.311 212.889C280.722 212.646 280.186 212.289 279.735 211.838C279.284 211.387 278.926 210.852 278.682 210.263C278.438 209.674 278.313 209.042 278.313 208.404V201.224C278.313 198.542 280.498 196.388 283.175 196.388L288.207 196.393L288.196 170.022C288.195 169.134 288.368 168.256 288.706 167.436C289.045 166.615 289.542 165.87 290.168 165.242C290.795 164.615 291.54 164.117 292.359 163.777C293.179 163.437 294.057 163.263 294.945 163.263H304.94C306.733 163.268 308.45 163.985 309.716 165.256C310.981 166.526 311.69 168.247 311.688 170.04L311.693 196.391H327.276C329.964 196.391 332.149 198.55 332.149 201.232V208.412C332.149 209.049 332.023 209.68 331.778 210.268C331.534 210.856 331.176 211.391 330.725 211.84C330.274 212.29 329.738 212.646 329.149 212.889C328.56 213.131 327.929 213.255 327.292 213.254H311.693L311.704 252.927C311.704 260.716 316.423 266.031 324.865 266.031L326.283 266.02C329.194 266.02 331.561 268.367 331.561 271.278V279.072C331.561 279.764 331.425 280.449 331.16 281.088C330.895 281.727 330.506 282.308 330.016 282.796C329.526 283.285 328.945 283.672 328.305 283.935C327.665 284.198 326.98 284.332 326.288 284.33H316.886V284.335ZM196.443 239.001C196.443 216.136 182.908 193.303 152.15 193.303C123.713 193.303 107.763 215.559 107.763 239.006C107.763 263.994 124.847 286 152.335 286C171.149 286 189.695 276.086 193.199 259.803C193.673 257.607 192.192 254.727 189.097 254.717H175.655C173.214 254.717 171.219 255.885 170.017 257.649C166.172 263.289 160.535 266.291 152.202 266.291C140.427 266.291 132.264 257.014 131.65 246.725H188.823C194.089 246.725 196.443 243.868 196.443 239.001ZM131.827 229.23C132.745 219.123 141.65 211.654 152.15 211.654C162.647 211.654 171.708 219.123 172.626 229.23H131.827ZM456.967 239.001C456.967 216.136 443.432 193.303 412.671 193.303C384.237 193.303 368.287 215.559 368.287 239.006C368.287 263.994 385.373 286 412.859 286C431.673 286 450.219 276.086 453.726 259.803C454.199 257.607 452.719 254.727 449.626 254.717H436.181C433.741 254.717 431.746 255.885 430.541 257.649C426.699 263.289 421.059 266.291 412.726 266.291C400.954 266.291 392.793 257.014 392.174 246.725H449.353C454.613 246.725 456.967 243.868 456.967 239.001ZM392.351 229.23C393.266 219.123 402.171 211.654 412.671 211.654C423.174 211.654 432.235 219.123 433.153 229.23H392.351Z" fill="white"/>
<path fill-rule="evenodd" clip-rule="evenodd" d="M268.976 164.457H83.782C82.7816 164.457 81.791 164.654 80.8669 165.037C79.9429 165.421 79.1034 165.982 78.3967 166.69C77.6899 167.398 77.1296 168.239 76.748 169.163C76.3664 170.088 76.1708 171.079 76.1725 172.079L76.8099 244.815C76.8099 244.815 36.9026 172.735 34.8213 169.056C32.8676 165.596 28.6661 162.41 22.8518 162.41H7.62245C6.62102 162.41 5.6294 162.607 4.70426 162.99C3.77913 163.374 2.9386 163.936 2.23073 164.644C1.52285 165.352 0.96149 166.193 0.578732 167.119C0.195974 168.044 -0.000681796 169.036 1.77595e-06 170.037L0.00780577 276.705C0.00712226 277.706 0.203607 278.697 0.586039 279.622C0.968472 280.547 1.52936 281.388 2.23669 282.096C2.94402 282.804 3.78393 283.366 4.70846 283.75C5.633 284.134 6.62406 284.332 7.62506 284.332H17.3938C19.417 284.328 21.3555 283.519 22.7829 282.086C24.2104 280.652 25.01 278.71 25.0058 276.687L24.3919 201.914C24.3919 201.914 64.6842 274.715 66.409 277.581C68.7322 281.458 72.6657 284.335 78.3682 284.335H92.3592C93.36 284.334 94.351 284.136 95.2754 283.753C96.1997 283.369 97.0395 282.807 97.7466 282.099C98.4537 281.39 99.0144 280.55 99.3965 279.624C99.7787 278.699 99.9748 277.708 99.9738 276.707L99.9686 182.535L268.987 182.54C269.67 182.542 270.347 182.409 270.979 182.149C271.612 181.889 272.186 181.507 272.67 181.025C273.155 180.543 273.539 179.97 273.802 179.339C274.064 178.708 274.2 178.031 274.2 177.347V169.655C274.196 168.273 273.644 166.949 272.664 165.975C271.685 165 270.358 164.454 268.976 164.457Z" fill="white"/>
<path fill-rule="evenodd" clip-rule="evenodd" d="M239.004 210.767C247.059 210.767 253.078 213.688 255.248 218.732C256.289 221.157 258.308 221.623 261.081 221.623H272.153C273.982 221.623 276.086 220.049 276.086 217.655C276.086 204.786 260.737 193.292 238.989 193.292C216.504 193.292 201.735 204.003 201.735 221.071C201.735 234.126 212.052 241.894 224.735 245.211C230.515 246.72 240.386 249.16 245.191 250.424C250.373 251.78 255.006 253.367 255.006 257.802C255.006 264.808 247.623 267.191 239.558 267.191C231.918 267.191 224.308 263.78 222.126 258.33C220.864 255.175 218.65 254.717 215.294 254.717H204.032C202.068 254.717 199.807 256.403 199.807 258.965V260.419C199.807 272.878 216.522 285.927 239.579 285.927C255.93 285.927 278.709 279.129 278.709 257.204C278.709 244.506 270.212 235.715 256.388 232.201C250.982 230.83 237.984 227.526 235.157 226.795C230.117 225.489 225.414 223.847 225.414 219.529C225.416 212.986 231.462 210.767 239.004 210.767ZM464.91 279.829H462.399V268.091H466.786C469.814 268.091 471.604 268.955 471.604 271.637C471.604 273.796 470.334 274.579 468.778 274.696L471.775 279.829H468.802L466.094 274.897H464.91V279.829ZM467.129 272.909C468.258 272.909 468.919 272.675 468.919 271.374C468.919 270.165 467.618 270.079 466.674 270.079H464.91V272.909H467.129ZM466.723 284.874C460.929 284.874 455.763 280.865 455.763 273.971C455.763 267.082 460.929 263.073 466.723 263.073C472.496 263.073 477.662 267.082 477.662 273.971C477.662 280.865 472.496 284.874 466.723 284.874ZM466.723 265.607C462.399 265.607 458.908 268.955 458.908 273.971C458.908 278.991 462.399 282.371 466.723 282.34V282.371C470.94 282.371 474.512 278.991 474.512 273.971C474.512 268.955 470.94 265.607 466.723 265.607Z" fill="white"/>
</svg>
