<svg width="261" height="100" viewBox="0 0 261 100" fill="none" xmlns="http://www.w3.org/2000/svg">
<path fill-rule="evenodd" clip-rule="evenodd" d="M59.9729 1.37344C54.7026 1.37344 41.1531 1.58953 37.6396 0.941254C37.1381 0.941254 36.8858 0.941257 36.6351 1.15735C36.3843 1.37344 36.6351 1.80562 36.6351 2.23781C36.6351 2.88609 36.6351 3.96783 36.1336 5.26567C35.8828 6.13132 35.6321 7.64397 35.6321 8.50962C35.6321 9.37527 35.6321 10.2396 36.1336 10.2396C36.6351 10.2396 36.8858 9.59136 36.8858 8.72571C37.1366 5.26567 39.3948 3.53565 42.1561 3.10346C44.1636 2.88737 52.1936 2.67128 54.4519 2.88737C55.9578 2.88737 56.4594 4.1852 56.4594 5.26567V47.6505C56.4594 48.5162 56.2086 49.5979 55.4563 50.2462C54.7041 50.8945 53.1981 51.1119 51.1906 51.1119C51.1906 51.1119 49.9353 50.8945 49.9353 51.544C49.9353 51.9762 50.9398 51.9762 51.4413 51.9762C53.4488 51.9762 56.2086 51.7614 58.9698 51.7614C61.7311 51.7614 65.9954 51.9762 67.7521 51.9762C68.2536 51.9762 69.0074 52.1936 69.0074 51.544C69.0074 50.8945 68.0043 51.1119 68.0043 51.1119C66.2476 51.1119 64.4908 50.8945 63.4878 50.0301C62.4833 49.1657 62.2326 47.8679 62.2326 46.7862V5.04957C62.2326 3.96783 62.4833 2.88737 63.9893 2.88737C66.4983 2.67128 74.2776 2.88737 76.5359 3.10346C79.2956 3.53565 81.3031 5.04958 81.5539 8.50962C81.8046 9.59136 81.8046 10.2396 82.3076 10.2396C83.0599 10.2396 82.8091 8.50962 82.8091 8.50962C82.8091 7.42788 82.5584 5.69785 82.3076 4.61739C82.0569 3.96783 82.0569 3.10346 82.0569 2.23781C82.0569 1.80562 82.0569 1.37344 81.8061 1.15735C81.8061 0.941257 81.3046 0.941254 80.8016 0.941254C77.5374 1.58953 65.4939 1.37344 59.9729 1.37344ZM139.268 45.0549C142.279 39.2165 150.057 22.782 156.079 8.72571C156.833 6.99569 157.082 5.69785 157.082 4.4013C156.833 2.67128 155.578 1.8069 154.324 2.023C153.57 2.023 153.318 1.80691 153.318 1.59081C153.069 0.942536 154.573 0.942536 156.079 0.942536C158.588 0.942536 161.348 1.15863 165.364 0.942536C166.367 0.942536 167.121 0.942533 167.121 1.37472C167.121 1.8069 166.869 1.80691 165.866 1.80691C164.361 2.023 162.603 2.67128 160.846 5.91523C153.451 21.1119 146.09 36.3211 138.764 51.5428C138.262 52.4071 138.013 52.8419 137.509 52.8419C136.506 52.8419 136.253 51.7601 136.004 51.3279C136.004 51.3279 123.456 21.0519 116.681 5.26567C115.929 3.53565 114.674 1.58954 112.416 1.80563C111.413 1.80563 110.91 1.80562 110.91 1.58953C110.91 0.941254 112.165 0.941254 113.168 0.941254C114.674 0.941254 115.677 1.15735 118.186 1.15735C120.444 1.15735 122.953 0.941254 124.459 0.941254C125.713 0.941254 126.968 0.941255 126.968 1.37344C126.968 1.58953 126.968 1.80563 126.467 1.80563H124.459C123.204 2.02172 122.702 3.31955 122.953 4.61739C126.47 15.2136 134.249 34.4587 139.268 45.0549Z" fill="white"/>
<path fill-rule="evenodd" clip-rule="evenodd" d="M117.437 45.0549C120.447 39.2165 128.477 22.782 134.5 8.7257C135.253 6.99568 135.506 5.69785 135.506 4.40129C135.253 2.67127 133.998 1.8069 132.495 1.8069C131.991 1.8069 131.741 1.8069 131.489 1.37471C131.489 0.942526 132.744 0.942529 134.25 0.942529C137.009 0.942529 139.771 1.15862 143.533 0.942529C144.539 0.942529 145.542 0.942526 145.542 1.37471C145.542 1.8069 145.04 1.8069 144.037 1.8069C142.782 2.02299 140.774 2.67127 139.27 5.91522C132.744 19.3219 122.958 39.0004 117.186 51.5428C116.684 52.4071 116.434 52.8419 115.68 52.8419C114.677 52.8419 114.425 51.7601 114.174 51.1106C114.174 51.1106 101.377 21.0519 94.8526 5.26566C94.1004 3.53564 92.8451 1.80562 90.3361 2.02171C89.3316 2.02171 88.8301 1.80562 88.8301 1.58952C88.8301 0.941246 90.0854 0.941246 91.3391 0.941246C92.5929 0.941246 93.5974 1.15734 96.1064 1.15734C98.3646 1.15734 101.375 0.941246 102.63 0.941246C103.886 0.941246 105.893 0.941246 105.893 1.58952C105.893 1.80562 105.642 1.80562 105.141 1.80562C104.389 2.02171 104.136 1.80562 102.883 1.80562C101.377 2.02171 100.624 3.31955 101.377 5.26566C104.89 15.8619 112.417 34.4586 117.437 45.0549ZM208.274 3.53692C210.28 4.61866 211.032 4.1852 211.032 3.10473C211.032 1.8069 211.033 0.942526 211.786 0.726433C212.54 0.726433 212.54 1.80818 212.54 3.10473C212.54 5.9165 212.789 10.457 213.291 13.4849C213.543 15.2149 213.291 15.6471 212.789 15.8632C212.54 15.8632 212.036 15.431 211.786 14.3492C211.285 10.8892 208.776 7.21305 204.51 4.83475C197.984 1.15862 188.198 0.726433 181.926 4.40257C173.896 8.94307 169.378 18.6749 172.641 31.4333C176.654 45.7057 188.701 50.4623 197.232 50.0301C205.764 49.3818 211.534 44.624 214.797 39.2165C215.049 38.7843 215.551 38.3521 216.052 38.5682C216.554 38.7843 216.806 39.2165 216.554 39.8661C214.797 43.9744 209.277 49.8127 201.247 51.7601C187.696 55.2189 172.642 50.461 166.869 36.406C161.099 21.7015 169.63 7.42915 181.174 2.45518C191.962 -2.08661 203.255 0.507785 208.274 3.53692ZM258.71 71.4374C258.71 72.9538 258.71 75.1135 259.211 76.6274C259.211 77.0622 259.211 77.4943 258.962 77.4943C258.71 77.4943 258.46 77.277 258.46 76.6274C257.956 73.386 255.447 71.2225 251.686 71.2225C248.423 71.2225 245.912 72.7365 245.912 75.5482C245.66 77.0622 246.414 78.3574 247.42 79.4392C248.423 80.3061 249.426 80.9531 253.19 82.4658C255.124 83.4043 256.898 84.5691 258.462 85.9271C260.219 87.8719 260.968 90.0354 260.719 92.4124C259.965 96.9555 256.201 99.982 250.68 99.982C248.956 99.9891 247.248 99.695 245.66 99.1177C244.909 98.6855 244.156 98.4681 243.903 98.4681C243.654 98.4681 243.402 98.6855 243.153 99.1177C243.153 99.7672 242.648 99.7672 242.648 99.1177C242.648 97.8186 242.399 95.0094 241.897 92.6298C241.897 92.1976 241.897 91.9802 242.147 91.9802C242.399 91.9802 242.648 92.1976 242.648 92.6298C243.654 97.3877 246.914 99.1177 250.678 99.1177C254.442 99.1177 256.953 96.9555 257.453 93.9276C257.705 92.6285 257.453 90.6837 256.699 89.3846C255.696 88.3028 254.942 87.2224 251.683 85.7084C249.174 84.4119 247.165 83.5462 245.657 82.4645C243.4 80.9505 242.647 78.5735 242.899 76.6261C243.151 73.1674 246.663 70.573 251.181 70.573C252.686 70.573 253.939 70.7878 255.444 71.2225C256.45 71.4374 256.951 71.6547 257.204 71.8721C257.705 71.8721 257.954 71.6547 257.954 71.2225C257.954 71.0052 258.207 70.7878 258.459 70.7878C258.71 70.7878 258.71 71.0052 258.71 71.4374ZM194.471 71.2225H188.702C187.948 71.0052 187.696 71.2225 187.696 71.4374C187.696 71.6547 188.198 71.4374 188.702 71.6547C189.957 71.6547 190.708 72.0869 190.959 73.386V93.4954C188.198 90.254 172.893 71.656 172.893 71.656C172.388 71.2238 172.139 71.0064 171.385 71.2238H166.867C166.366 71.2238 165.363 71.0064 165.363 71.4386C165.363 71.656 165.864 71.656 166.366 71.656C167.873 71.656 168.875 72.0882 169.629 72.9551C170.13 73.3873 170.632 74.4691 170.632 75.5495V96.7394C170.632 97.1716 170.632 98.0385 170.13 98.4707C169.629 98.9029 168.875 98.9029 168.373 98.9029C168.121 98.9029 167.62 98.9029 167.62 99.1202C167.62 99.5524 168.121 99.3351 168.373 99.3351H175.15C175.399 99.3351 175.903 99.5524 175.903 99.1202C175.903 99.1202 175.651 98.9029 174.897 98.9029H173.393C172.387 98.6881 172.387 97.8211 172.138 96.958C172.138 94.5785 171.885 75.983 171.885 75.983C172.138 75.983 177.157 82.2535 180.669 86.3618C185.689 92.2002 190.957 98.9041 190.957 98.9041C191.21 99.1215 191.459 99.5537 191.961 99.5537C192.465 99.5537 192.465 99.1215 192.465 98.472V84.8492V74.0356C192.465 72.3068 192.966 71.6586 194.471 71.4412C194.973 71.4412 195.477 71.6586 195.477 71.4412C195.477 71.2225 194.973 71.2225 194.471 71.2225ZM21.8318 99.5499C22.8348 99.3325 23.5885 99.3325 25.3453 99.3325C27.3528 99.3325 29.3603 99.5499 30.1125 99.5499C30.8663 99.5499 30.8663 99.3325 30.8663 99.3325C30.8663 99.1177 30.3648 99.1177 29.611 99.1177C28.8573 99.1177 28.3558 98.9003 27.8543 98.4681C27.3513 98.0359 27.3513 97.6037 27.3513 96.5233V72.9526C27.3513 72.303 27.602 71.6534 28.8573 71.6534H29.3588C29.3588 71.6534 29.8603 71.6534 29.8603 71.4361C29.8603 71.2213 29.108 71.2213 28.6065 71.2213C27.8543 71.2213 26.8498 71.4361 24.8423 71.4361C23.3378 71.4361 22.584 71.4361 22.3333 71.2213C21.5795 71.2213 21.078 71.2213 21.078 71.4361C21.078 71.8708 21.5795 71.6534 22.3333 71.6534C22.584 71.6534 23.0855 71.6535 23.587 72.0856C23.8378 72.5178 24.0885 72.9526 24.0885 73.8169V82.9005C24.0885 83.3327 24.0885 83.5475 23.587 83.7649H7.5285C7.027 83.5475 6.77625 83.5475 6.77625 82.9005V73.8169C6.77625 72.9526 6.77625 72.5178 7.27775 72.0856C7.77926 71.8708 8.28224 71.6534 8.78375 71.6534C9.53749 71.6534 9.78824 71.6534 9.78824 71.4361C9.78824 71.2213 9.53749 71.2213 9.0345 71.2213C8.78375 71.2213 7.78074 71.4361 6.52549 71.4361C4.51799 71.4361 3.012 71.2213 2.25974 71.2213C1.50748 71.2213 0.753741 71.2213 0.753741 71.4361C0.753741 71.8708 1.00449 71.8708 1.25525 71.6534H1.75675C3.01199 71.6534 3.5135 72.5178 3.5135 73.3848V96.5233C3.5135 98.6855 2.25826 99.1177 1.25525 99.1177C0.250753 99.1177 0 99.1177 0 99.3325C0 99.5499 0.250752 99.5499 0.752257 99.5499L5.26877 99.3325C6.52401 99.3325 8.02852 99.3325 8.78226 99.5499C9.53601 99.5499 10.0375 99.5499 10.0375 99.3325C10.0375 99.1177 9.53601 99.1177 8.78226 99.1177C7.02552 99.1177 6.77476 98.2507 6.77476 96.5233V85.4949C6.77476 85.2775 7.02551 84.8453 7.27627 84.8453H23.587C23.8378 84.8453 24.0885 85.2775 24.0885 85.2775V96.7381C24.0885 98.252 23.587 99.1177 21.8303 99.1177C21.078 99.1177 20.575 99.1177 20.575 99.3325C20.5765 99.5499 21.078 99.5499 21.8318 99.5499ZM230.354 97.3877C228.597 98.4694 225.839 99.119 223.582 99.5499C215.552 101.064 207.522 98.9003 204.259 90.8985C200.999 82.8992 205.514 74.8974 212.037 72.0856C218.062 69.7086 224.083 71.0039 226.843 72.5178C228.351 73.3847 228.6 72.9526 228.6 72.303C228.6 71.8708 228.6 71.0039 228.852 71.0039C229.354 71.0039 229.354 71.6534 229.354 72.303C229.354 73.3847 229.354 76.4113 229.855 77.924C229.855 79.0057 229.855 79.2231 229.606 79.2231C229.104 79.2231 229.104 79.0057 228.852 78.3562C228.351 76.194 227.095 74.4652 224.839 73.1661C221.324 71.2213 215.803 71.2213 212.543 73.1661C208.025 75.7605 205.768 80.9506 207.773 88.088C209.782 96.0898 215.803 98.6842 220.57 98.6842C223.079 98.6842 225.842 98.2495 227.345 97.1677V91.5468C227.345 90.0328 227.345 89.1697 226.594 88.3028C225.84 87.6558 224.837 87.6558 223.583 87.6558C223.079 87.6558 222.577 87.6558 222.577 87.4384C222.577 87.2211 223.079 87.2211 223.079 87.2211H233.37C233.872 87.2211 234.121 87.2211 234.121 87.4384C234.121 87.6558 234.121 87.6558 233.37 87.6558C231.361 87.6558 230.861 88.088 230.609 89.6007C230.609 91.1146 230.609 93.709 230.861 96.5207C230.858 96.9555 230.606 97.1703 230.354 97.3877ZM131.74 74.0317C128.728 71.8721 125.216 71.0052 119.693 71.0052C117.937 71.0052 116.181 71.2225 115.177 71.2225C114.174 71.2225 113.922 71.2225 112.417 71.4374H108.151C107.65 71.2225 107.399 71.2225 107.399 71.6547C107.399 71.8721 107.901 71.8721 108.402 71.8721C109.156 71.8721 109.908 71.8721 110.159 72.3043C110.66 72.7365 110.911 73.386 110.911 74.2491V97.1703C110.911 98.4694 110.159 99.1177 108.151 99.1177C107.399 99.1177 107.147 99.1177 107.147 99.3325C107.147 99.5499 107.65 99.5499 108.151 99.5499H120.698C123.458 99.5499 126.219 98.9003 128.477 97.8186C133.497 95.2242 136.759 90.2515 136.759 84.4131C136.759 80.3048 135 76.4113 131.74 74.0317ZM129.229 95.8737C126.72 98.2508 123.207 98.6855 117.687 98.2508C114.425 98.036 114.174 96.7368 114.174 94.792V73.1674C114.174 72.5178 114.675 72.0856 115.429 72.0856C115.931 71.8708 116.432 71.8708 116.935 71.8708C119.444 71.6535 121.201 71.8708 122.958 72.303C128.98 73.5996 132.744 77.924 133.246 85.2762C133.497 89.6032 132.241 93.2793 129.229 95.8737ZM152.567 73.8169C152.567 72.9526 152.816 72.5178 153.318 72.303C153.822 71.8708 154.324 71.8708 154.573 71.8708C155.327 71.8708 155.828 71.8708 155.828 71.6534C155.828 71.4361 155.327 71.4361 155.078 71.4361H147.801C147.048 71.4361 146.294 71.4361 146.294 71.6534C146.294 71.8708 146.546 71.8708 146.795 71.8708H147.549C148.804 71.8708 149.306 72.5178 149.306 73.5996V96.7381C149.306 98.6855 148.303 99.1177 147.049 99.1177C146.043 99.1177 145.794 99.1177 145.794 99.3325C145.794 99.5499 146.043 99.5499 146.295 99.5499H154.827C155.581 99.5499 156.082 99.7672 156.082 99.3325C156.082 99.1177 155.581 99.1177 155.079 99.1177C153.07 99.1177 152.57 98.2507 152.57 96.7381V73.8169H152.567ZM78.7926 71.4374C78.7926 71.4374 79.0433 71.2225 79.7971 71.2225C81.3031 71.2225 84.8151 71.4374 86.5718 71.4374C87.0734 71.2225 87.5749 71.2225 87.5749 71.6547C87.5749 71.8721 87.0734 71.8721 86.5718 71.8721C85.0658 71.8721 84.5643 72.3043 84.5643 73.386V96.3072C84.5643 98.4694 86.5718 98.252 90.8376 98.252H95.8556C96.8601 98.252 98.3646 98.0372 99.1184 96.0924V95.2255C99.3691 95.0106 99.3691 94.7933 99.6199 94.7933V95.6577C99.6199 96.9568 98.8676 97.605 98.6154 98.9016C98.6154 99.3338 98.6154 99.3338 98.1139 99.3338C92.8436 99.5512 89.5824 99.3338 86.8226 99.3338H82.5568C81.5523 99.3338 79.2941 99.5512 79.0433 99.5512C78.5418 99.5512 78.2911 99.5512 78.2911 99.119H78.5418C79.5448 98.9016 81.3016 98.9016 81.3016 96.9568V73.6008C81.3016 72.3043 81.0508 71.656 79.7956 71.656C79.2941 71.6535 78.7926 71.6534 78.7926 71.4374ZM38.3933 85.2775C38.3933 77.0609 44.9173 70.573 53.4488 70.573C61.9803 70.573 68.7551 77.2757 68.7551 85.2775C68.7551 93.7115 62.4818 99.982 53.6996 99.982C45.4188 99.982 38.3933 93.4942 38.3933 85.2775ZM42.6576 88.0893C45.1666 95.8737 51.4398 99.9821 57.9638 98.4681C64.2371 96.9542 67.2491 90.6837 64.7386 82.6818C62.2296 74.68 55.7056 70.5717 49.4323 72.303C42.9098 73.8169 40.1486 80.0875 42.6576 88.0893Z" fill="white"/>
</svg>
