<svg width="416" height="286" viewBox="0 0 416 286" fill="none" xmlns="http://www.w3.org/2000/svg">
<path fill-rule="evenodd" clip-rule="evenodd" d="M233.221 16.8925C232.043 18.1195 227.901 24.3848 227.901 32.1466C227.901 34.0049 227.934 78.4999 227.901 80.0958C227.837 83.4814 225.768 88.3044 224.064 90.0043C222.863 91.2054 215.484 97.9151 214.829 98.6196L219.014 98.6858C220.376 97.3831 234.589 84.7841 236.077 83.0889C238.011 80.8902 242.621 75.32 242.621 66.5723L242.644 20.5003C242.644 13.5873 245.867 9.75249 247.524 7.90129C249.229 6.00044 254.83 1.3287 255.823 0.27188L251.432 0.141846C250.371 1.20339 234.682 15.3628 233.221 16.8925ZM198.029 191.248L215.434 206.453H227.09C238.94 206.453 249.773 201.381 256.92 194.237C264.072 187.082 266.705 177.477 266.705 168.49V143.566C266.705 135.19 261.44 130.317 259.981 128.856C259.182 128.062 254.113 123.281 254.113 123.281V142.403C254.113 142.403 259.7 148.172 260.804 149.342C265.968 154.827 265.911 164.814 249.565 180.749C246.701 183.536 238.533 191.248 227.293 191.248H198.029Z" fill="white"/>
<path fill-rule="evenodd" clip-rule="evenodd" d="M246.442 88.957C244.503 91.0091 242.642 96.0284 242.642 100.452V109.89H252.215C255.932 109.89 260.844 106.502 261.908 104.71C261.972 104.578 261.908 95.3499 261.908 95.3499C261.908 95.3499 264.365 98.8679 267.02 100.726C268.018 99.466 276.73 88.9002 284.026 88.8411C296.206 88.7418 293.454 104.112 288.478 109.029C286.865 110.611 279.671 117.212 277.446 119.328C271.692 124.806 261.842 122.184 261.842 108.029C261.842 108.029 251.272 118.066 249.688 119.394C248.094 120.723 242.642 126.499 242.642 126.499V151.366C242.642 163.291 238.718 167.291 235.467 170.878C234.202 172.271 220.773 184.522 218.976 185.851L214.59 185.95C214.59 185.95 222.449 178.805 224.024 177.169C225.816 175.309 227.903 171.531 227.903 165.242C227.903 163.648 227.705 126.165 227.705 126.165H166.618C145.37 126.165 140.828 102.584 140.696 96.2767C140.663 94.4184 140.696 75.5848 140.696 72.6626C140.696 68.7876 138.216 62.2481 134.256 60.2314H140.249C140.94 60.5222 144.706 62.0401 144.706 76.4974C144.706 76.4974 144.45 93.3214 144.45 94.2174C144.45 101.547 150.278 109.956 158.7 109.956L227.842 109.89C227.906 108.029 229.762 100.977 233.084 97.2484C234.973 95.1466 249.799 81.5782 251.494 80.2731L255.884 80.2235C255.215 80.8334 248.044 87.2665 246.442 88.957ZM269.143 103.119C269.143 103.119 273.146 108.431 275.054 109.959C282.501 115.933 286.035 109.516 281.037 102.653C279.061 99.9483 271.401 100.729 269.143 103.119Z" fill="white"/>
<path fill-rule="evenodd" clip-rule="evenodd" d="M195.007 147.663C195.007 151.002 184.342 159.863 183.718 160.487C182.947 156.891 180.257 152.919 172.308 144.966L183.978 133.296C191.797 141.126 195.007 142.793 195.007 147.663ZM215.245 13.8946C217.586 16.2352 222.624 22.5856 219.6 25.6142C216.931 28.2858 212.789 32.5225 212.789 32.5225C212.581 30.9952 208.703 27.3188 208.703 27.3188C208.703 27.3188 208.736 38.5892 208.703 39.9841C208.571 45.0719 206.656 46.5236 206.656 46.5236C206.656 46.5236 216.059 55.8529 216.059 67.8372C216.059 73.6485 216.082 78.9941 216.082 80.1478C216.082 82.6043 215.463 84.5051 213.751 86.3894C212.907 87.3256 204.19 96.0828 202.864 97.2768C200.339 99.5512 197.684 99.9318 195.693 99.9318H163.282C158.177 99.9318 152.924 95.948 152.924 91.9643C152.924 90.9689 152.99 79.9445 152.99 79.9445C154.652 81.8713 156.343 84.1221 160.428 84.063C163.617 84.0133 166.97 81.5072 167.866 80.6112C168.795 79.6726 192.383 55.0135 192.383 55.0135C192.383 55.0135 181.335 44.7717 174.058 39.906C170.507 37.5252 165.79 40.5302 165.078 43.6581C162.847 53.4673 165.078 68.1824 165.078 68.1824L156.13 59.255C152.529 55.6448 152.659 47.4787 156.953 43.1852C157.633 42.502 164.173 35.109 172.481 35.109H185.42C194.102 35.109 203.597 43.7574 203.597 43.7574C203.597 43.7574 204.992 42.2301 204.992 40.7524C204.992 36.3029 204.826 24.302 204.826 24.302C198.294 17.772 197.405 11.0316 200.535 7.9013C206.379 2.05925 208.502 0 208.502 0C208.502 0 208.432 7.088 215.245 13.8946ZM174.583 79.0153C171.389 82.3607 170.833 83.1977 167.845 84.9898H204.346C214.238 84.9898 212.271 78.8475 210.498 75.7527C206.859 69.4023 195.374 57.6024 195.374 57.6024C195.374 57.6024 175.247 78.3084 174.583 79.0153Z" fill="white"/>
<path fill-rule="evenodd" clip-rule="evenodd" d="M132.96 112.24H126.969C126.969 112.24 133.407 115.777 133.407 124.898V154.03C133.407 172.989 149.044 190.518 168.043 190.518H183.912C193.44 190.518 196.783 188.21 202.542 183.099C204.654 181.222 207.398 178.141 208.403 177.023C211.725 173.306 215.257 170.301 215.257 160.539V151.004C215.257 142.762 210.486 139.332 208.179 137.027C206.701 135.549 202.642 131.669 202.642 131.669V151.2C202.642 151.2 206.642 155.461 208.403 156.846C216.643 163.353 210.084 174.649 202.443 174.649C200.916 174.649 169.717 174.658 167.592 174.713C154.759 175.032 137.412 163.584 137.412 144.337V128.508C137.414 112.24 132.96 112.24 132.96 112.24Z" fill="white"/>
<path fill-rule="evenodd" clip-rule="evenodd" d="M171.155 147.715C171.155 151.042 160.489 159.915 159.87 160.539C159.106 156.943 156.409 152.971 148.455 145.018L160.125 133.348C167.953 141.174 171.155 142.833 171.155 147.715ZM49.1384 277.276C47.2376 277.276 32.5698 277.252 30.4727 277.252C24.5858 277.252 25.035 272.365 24.5196 268.188V241.403C24.5196 241.403 28.605 241.304 33.2341 241.304C38.4071 241.304 44.8473 240.54 51.1125 244.087C51.1125 244.087 46.6063 233.221 33.201 233.221H24.5196V224.638C24.5196 224.638 24.5196 217.16 22.6944 214.952C22.6944 214.952 34.239 214.995 35.0262 214.995C45.7008 215.002 53.952 214.839 62.5318 220.555C62.5318 220.555 60.8887 206.429 40.2725 206.429H0C0 206.429 6.99106 212.413 6.7972 224.596L6.99106 273.403C6.99106 285.655 11.8945 285.993 11.8945 285.993H51.5854C60.5813 285.993 63.7116 279.56 63.7116 276.075L63.8464 271.396C63.8464 271.391 60.9904 277.276 49.1384 277.276ZM154.796 273.15V239.013C154.796 225.766 143.973 222.246 135.913 222.246C125.241 222.246 122.047 231.161 120.685 234.223C118.304 225.913 109.987 222.149 103.164 222.149C90.2739 222.149 87.0041 234.422 87.0041 234.422C87.0041 234.422 86.6991 222.57 76.3485 222.57L66.2059 222.593C66.2059 222.593 72.081 225.01 72.081 235.251L72.0645 273.157C72.0645 285.674 77.1121 285.891 77.1121 285.891H93.8273C93.3946 285.674 87.4108 281.16 87.4108 273.051V239.427C87.6164 237.933 90.1415 232.854 97.3524 232.854C101.438 232.854 105.928 237.112 105.826 241.9L105.812 273.141C105.812 285.839 110.791 285.875 110.791 285.875H127.572C127.572 285.875 121.156 281.359 121.156 273.034L121.106 239.401C121.735 237.526 123.943 232.958 130.277 232.958C135.322 232.958 139.547 237.216 139.448 242.006C139.448 242.006 139.415 270.524 139.431 273.172C139.507 285.953 144.413 285.837 144.413 285.837C153.151 285.837 161.194 285.872 161.194 285.872C161.194 285.872 154.796 281.451 154.796 273.15ZM184.12 273.136C184.12 281.55 190.56 285.877 190.56 285.877C190.56 285.877 182.579 285.842 173.845 285.842C173.845 285.842 168.717 285.917 168.717 273.233V273.176L168.734 235.164C168.734 225.14 162.925 222.565 162.925 222.565H173.067C176.644 222.565 184.089 222.565 184.089 236.741L184.063 273.077L184.12 273.136ZM235.623 227.341C235.623 227.341 234.01 222.785 227.067 222.785C216.567 222.785 214.009 235.261 214.009 235.261C213.155 225.4 210.512 222.485 203.103 222.485L192.96 222.511C192.96 222.511 198.837 224.92 198.837 235.162L198.819 273.117C198.819 285.643 203.864 285.849 203.864 285.849H220.579C220.149 285.643 214.165 281.127 214.165 273.016L214.184 241.94C214.624 239.122 216.078 236.954 218.283 235.526C223.792 231.958 231.315 232.804 235.623 238.065V227.341ZM313.629 229.634C319.291 229.634 323.516 232.107 323.516 232.107L323.565 222.555H309.505L309.515 208.072C309.515 208.072 305.822 214.463 298.261 220.671C293.514 224.57 283.544 229.386 283.544 229.386L294.159 229.577L294.14 273.625C294.14 285.842 299.247 285.842 299.247 285.842C308.418 285.842 315.943 285.877 315.943 285.877C315.943 285.877 309.489 281.55 309.489 273.517L309.503 229.61C313.91 229.625 310.877 229.634 313.629 229.634ZM364.46 248.758C355.081 258.568 347.721 257.031 341.824 264.218C341.824 264.228 342.77 273.964 350.22 277.399C352.764 278.579 363.088 282.305 369.779 270.76L369.732 280.976C369.732 280.976 365.439 285.962 351.811 285.962C335.387 285.962 324.138 273.049 324.138 255.534C324.138 238.313 333.308 222.326 350.624 222.236C367.595 222.149 376.785 235.861 364.46 248.758ZM354.194 244.739C356.97 239.611 359.154 226.587 349.669 227.301C338.68 228.126 340.77 257.348 340.77 257.348C344.446 253.354 349.96 252.541 354.194 244.739ZM176.351 217.442C180.659 217.442 184.153 214.023 184.153 209.807C184.153 205.592 180.659 202.171 176.351 202.171C172.044 202.171 168.549 205.592 168.549 209.807C168.549 214.023 172.044 217.442 176.351 217.442ZM253.04 278.694C249.227 278.694 246.501 274.727 246.501 270.661C246.501 254.858 259.44 252.676 262.899 248.458L262.927 275.103C261.398 276.46 259.847 278.694 253.04 278.694ZM262.899 242.358C259.01 249.172 228.757 250.617 233.396 274.016C235.228 283.295 241.413 286 249.189 286C256.743 286 261.282 282.056 263.185 278.387C264.313 285.433 267.871 285.839 267.871 285.839C276.612 285.839 284.591 285.875 284.591 285.875C284.591 285.875 278.08 281.548 278.08 273.2V237.628C278.08 229.119 268.646 222.496 258.617 222.496C248.981 222.496 242.921 227.137 242.921 227.137V238.176C242.921 238.176 246.361 229.431 255.08 229.431C263.592 229.431 264.218 233.67 264.169 235.786C264.169 235.786 265.029 238.649 262.899 242.358ZM401.47 268.684C401.562 273.16 397.559 279.037 389.043 279.037C380.324 279.037 376.844 270.115 376.844 270.115V281.42C376.844 281.42 383.133 285.903 392.769 285.903C404.207 285.903 415.771 277.21 415.511 265.109C415.428 260.851 413.908 257.225 411.586 254.097C407.716 248.91 400.67 245.283 395.216 241.928C392.105 240.011 390.45 236.585 390.414 235.379C390.322 233.261 391.348 228.982 399.867 228.982C408.175 228.982 411.711 237.727 411.711 237.727L411.678 227.137C411.678 227.137 405.321 222.09 395.682 222.09C385.653 222.09 376.55 228.714 376.721 237.219C376.877 244.69 380.026 249.529 386.135 254.087C388.549 255.887 391.431 257.638 394.765 259.49C399.633 262.187 401.406 265.49 401.47 268.684Z" fill="white"/>
</svg>
