<svg width="364" height="100" viewBox="0 0 364 100" fill="none" xmlns="http://www.w3.org/2000/svg">
<path fill-rule="evenodd" clip-rule="evenodd" d="M244.348 71.3464C242.434 70.6794 240.428 70.3153 238.402 70.2672C234.977 70.2672 230.654 70.9899 227.589 72.4321V99.4572H235.697V76.2157C236.417 75.8528 237.679 75.6761 238.762 75.6761C240.204 75.6761 241.463 75.8528 242.546 76.3988L244.348 71.3464ZM355.889 85.0421C355.889 88.103 355.706 94.2314 351.385 94.2314C347.065 94.2314 347.061 88.103 347.061 85.0421C347.061 81.9811 347.061 75.493 351.385 75.493C355.709 75.493 355.889 81.9811 355.889 85.0421ZM364 85.2219C364 77.2917 360.036 70.2672 351.382 70.2672C342.728 70.2672 338.947 77.2949 338.947 85.2219C338.947 93.149 342.731 99.8137 351.382 99.8137C360.033 99.8137 364 93.1522 364 85.2219ZM337.511 98.5546L336.426 93.5119C334.99 94.2346 333.727 94.4145 332.102 94.4145C330.12 94.4145 328.501 93.5119 327.778 92.0697C326.336 90.088 325.973 87.2069 325.973 85.2251C325.973 83.2434 326.336 80.8955 327.235 78.9201C328.138 76.9384 329.94 75.8528 332.105 75.8528C333.367 75.8528 335.166 76.2157 336.252 76.9384L337.331 71.7126C335.529 70.81 332.828 70.2704 330.303 70.2704C322.192 70.2704 317.685 77.2981 317.685 85.0453C317.685 94.2346 322.015 99.8201 330.303 99.8201C332.645 99.8137 335.529 99.4572 337.511 98.5546ZM314.084 99.4572V79.0936C314.084 72.7886 309.937 70.2672 303.988 70.2672C300.743 70.2672 297.505 71.3464 294.977 72.7886C292.455 70.9867 288.671 70.2672 285.61 70.2672C282.006 70.2672 276.779 71.3464 273.898 72.6087V99.4572H282.006V76.2157C282.908 75.8528 284.168 75.6761 285.793 75.6761C288.135 75.6761 290.117 76.7553 290.117 79.2767V99.4572H298.221V76.9352C299.124 76.2125 301.106 75.6729 302.369 75.6729C304.534 75.6729 305.97 76.9352 305.97 79.4565V99.4572H314.084ZM268.492 99.4572V72.0691C265.07 70.9899 262.006 70.2672 258.941 70.2672C248.672 70.2672 242.902 76.9352 242.902 87.0238C242.902 93.5119 245.967 99.9968 253.172 99.9968C256.057 99.9968 258.938 98.7345 260.56 97.1125V99.4572H268.492ZM224.708 99.4572L211.733 58.7364H203.086L189.751 99.4572H198.042L200.564 90.6308H213.359L215.88 99.4572H224.708ZM178.396 62.7032C178.396 60.3584 176.414 58.5566 173.892 58.5566C171.37 58.5566 169.388 60.3584 169.388 62.7032C169.388 65.0446 171.37 66.8433 173.892 66.8433C176.414 66.8433 178.396 65.0414 178.396 62.7032ZM169.925 99.4572H178.033V70.9899H169.925V99.4572ZM163.799 97.8319V58.017H155.691V70.9899C154.249 70.8068 152.81 70.627 151.367 70.627C143.076 70.627 138.573 77.6579 138.573 85.4082C138.573 94.4177 143.439 100 152.447 100C155.691 99.9968 160.738 99.2741 163.799 97.8319ZM134.785 97.6553V70.9867H126.678V93.6886C126.138 94.2282 124.153 94.4112 123.073 94.4112C120.552 94.4112 119.109 93.149 119.109 90.6276V70.9867H111.001V89.9081C111.001 97.6553 114.786 99.9968 122.174 99.9968C126.861 99.9968 132.264 98.9176 134.785 97.6553ZM105.775 99.4572V72.0691C102.351 70.9899 99.2862 70.2672 96.2248 70.2672C85.9551 70.2672 80.189 76.9352 80.189 87.0238C80.189 93.5119 83.2535 99.9968 90.4587 99.9968C93.3402 99.9968 96.2248 98.7345 97.847 97.1125V99.4572H105.775ZM77.1244 88.103C77.1244 84.1395 75.1424 81.2584 72.4377 79.0936C70.9985 78.0144 67.2144 76.0326 64.5097 74.5905C62.1679 73.5113 59.8261 71.8925 59.8261 69.3647C59.8261 66.3037 62.1679 64.8616 65.2324 64.8616C68.297 64.6849 70.9985 65.5842 73.5234 66.6667L75.6853 60.8948C72.624 59.276 68.4769 58.3735 64.8759 58.3735C57.4876 58.3735 51.5416 62.1571 51.5416 69.7276C51.5416 74.5905 54.2463 77.4748 57.1278 79.2767C59.4695 80.539 62.5341 81.9811 64.5161 83.0603C67.2176 84.5025 68.66 86.1213 68.66 88.4692C68.66 91.7133 65.4155 93.1554 62.3542 93.1554C59.1098 93.1554 54.6061 91.7132 53.1638 91.1736L51.3617 97.1157C55.3224 98.7409 59.1098 99.637 63.2536 99.637C70.2758 99.6338 77.1244 95.6735 77.1244 88.103ZM260.384 92.7892C259.268 93.7118 257.868 94.2212 256.42 94.2314C252.096 94.2314 251.373 88.8225 251.373 85.405C251.373 80.7188 252.995 74.9534 258.582 74.9534C259.121 74.9534 259.844 75.1365 260.384 75.3099V92.7892ZM211.913 85.2219H202.003L207.05 67.2063H207.23L211.913 85.2219ZM155.691 94.2314C154.972 94.5879 153.889 94.771 152.99 94.771C147.763 94.771 147.044 89.0056 147.044 85.0421C147.044 80.7188 147.943 75.1365 153.349 75.1365C154.069 75.1365 154.972 75.3132 155.691 75.493V94.2314ZM97.6672 92.7892C96.4047 93.6918 95.1455 94.2314 93.7032 94.2314C89.3794 94.2314 88.6566 88.8225 88.6566 85.405C88.6566 80.7188 90.2788 74.9534 95.8651 74.9534C96.4047 74.9534 97.1275 75.1365 97.6672 75.3099V92.7892ZM308.138 26.8452C308.138 30.0893 307.955 36.3943 303.451 36.3943C298.947 36.3943 298.947 29.9062 298.947 26.8452C298.947 23.7843 298.947 17.1163 303.451 17.1163C307.955 17.1163 308.138 23.7811 308.138 26.8452ZM321.469 41.6169H329.763V0.899359H321.469V41.6169ZM345.799 41.9798V12.4334H337.511V42.8792C337.511 47.2088 334.99 48.4679 331.382 48.4679C329.04 48.4679 325.616 47.5653 323.634 46.8427L321.832 51.8854C324.537 53.3276 329.763 54.4132 332.825 54.4132C341.112 54.4164 345.799 50.0867 345.799 41.9798ZM316.426 27.0251C316.426 18.9214 312.462 11.7107 303.451 11.7107C294.624 11.7107 290.66 18.9182 290.66 27.0251C290.66 28.1043 290.843 29.3666 291.023 30.449C291.199 31.5282 291.379 32.6074 291.379 33.147C291.379 35.3119 290.3 36.3911 286.876 36.3911H280.93C282.912 35.1288 284.174 32.434 284.174 30.0861C284.174 19.278 267.955 18.5553 267.955 11.1647C267.955 7.92061 270.837 7.02449 273.721 7.02449C276.063 7.02449 279.127 7.56408 281.649 8.82637L283.631 3.24083C280.93 1.61881 276.603 0.719491 272.279 0.719491C265.793 0.719491 259.304 4.14018 259.304 11.1647C259.304 23.598 275.34 23.4149 275.34 30.9886C275.34 34.4125 273.178 36.3911 267.052 36.3911H255.52V13.8691C253.178 12.6068 249.031 11.7107 245.071 11.7107C235.161 11.7107 229.934 17.8326 229.934 27.5647C229.934 35.1288 233.898 41.7999 242.009 41.7999C243.628 41.7999 245.793 41.6169 247.232 40.7207V42.8792C247.232 46.8427 244.891 48.4679 241.107 48.4679C238.765 48.4679 235.34 47.5653 233.358 46.8427L231.556 51.8854C234.258 53.3276 239.484 54.4132 242.549 54.4132C250.837 54.4132 255.523 49.727 255.523 41.6169H288.138C291.023 41.6169 293.548 40.7208 294.983 38.9124C295.53 39.4585 296.789 40.3546 297.512 40.7175C299.131 41.6137 301.113 42.1533 303.454 42.1533C312.458 42.1565 316.426 35.132 316.426 27.0251ZM208.126 41.6169H216.597V0.899359H208.126V41.6169ZM200.201 32.071V0.899359H191.91V32.6106C191.91 35.132 190.288 36.5742 187.766 36.5742C184.162 36.5742 181.64 35.8515 179.658 34.9554V12.4334H171.187V36.0346C170.108 36.5742 168.306 36.7572 167.223 36.7572C164.519 36.7572 163.079 35.8547 163.079 32.9736V12.4334H154.788V35.6748C153.889 36.3911 152.267 36.754 150.828 36.754C147.943 36.754 146.864 35.3119 146.864 32.7905V12.4334H138.393V32.434C138.393 35.132 137.13 36.3911 134.249 36.3911H115.508V18.0157C116.228 17.6527 117.85 17.293 118.933 17.293C120.375 17.293 121.274 17.8326 121.997 18.5553C122.897 19.4578 123.077 21.9792 123.077 24.3207C123.077 27.5647 122.717 30.8088 122.537 32.4308H130.465C130.645 30.449 131.184 25.9427 131.184 23.0584C131.184 21.2565 131.005 19.4578 130.645 18.1955C129.565 13.3263 125.418 11.7075 119.292 11.7075C115.149 11.7075 109.562 12.7867 107.041 14.0489V36.3879H99.6524V13.8659C97.4905 12.6036 93.3466 11.7075 89.3826 11.7075C79.2895 11.7075 74.0631 17.8294 74.0631 27.5615C74.0631 35.1256 78.2102 41.7967 86.1382 41.7967C87.7604 41.7967 89.9223 41.6137 91.3646 40.7175V42.876C91.3646 46.8395 89.0228 48.4647 85.2387 48.4647C82.897 48.4647 79.6525 47.5621 77.4874 46.8395L75.6853 51.8822C78.3901 53.3243 83.7932 54.41 86.8609 54.41C94.9688 54.41 99.6524 49.7238 99.6524 41.6137H134.609C136.951 41.6137 139.292 40.891 140.555 39.6319C141.817 41.0741 145.238 42.3363 148.483 42.3363C151.904 42.3363 155.511 41.7968 157.853 39.6319C160.375 41.7968 164.159 42.3363 167.403 42.3363C171.187 42.3363 174.792 41.4402 176.953 40.1779C179.658 41.2571 183.442 42.3363 187.946 42.3363C195.154 42.3395 200.201 39.8182 200.201 32.071ZM70.8154 27.2082C70.8154 22.159 69.7361 18.3754 67.3943 15.6774C65.0525 13.1496 61.8081 11.7139 57.6642 11.7139C55.5023 11.7139 52.6209 12.2535 50.6357 13.1496L51.8981 18.3754C53.2116 17.8215 54.617 17.5176 56.042 17.4793C58.3838 17.4793 60.006 18.7416 60.9087 20.3572C61.8081 22.3389 62.1711 25.3999 62.1711 27.2082C62.1711 29.7295 61.8113 32.9736 60.0092 34.9554C58.9267 36.2176 57.6674 36.5742 54.9627 36.5742H49.1966L48.1172 42.1565H56.7648C60.7288 42.1565 64.333 41.0773 66.8547 38.3728C69.3763 35.495 70.8154 31.5314 70.8154 27.2082ZM14.5935 3.96351C14.5935 1.80189 12.6115 0 10.2698 0C7.92799 0 5.94278 1.80189 5.94278 3.96351C5.94278 6.12192 7.92478 7.92382 10.2698 7.92382C12.6148 7.92382 14.5935 6.12192 14.5935 3.96351ZM25.4094 3.96351C25.4094 1.80189 23.6073 0 21.0856 0C18.7438 0 16.7618 1.80189 16.7618 3.96351C16.7618 6.12192 18.7438 7.92382 21.0856 7.92382C23.6073 7.92382 25.4094 6.12192 25.4094 3.96351ZM36.3987 50.4497C36.3987 48.2848 34.4167 46.4861 32.0717 46.4861C29.73 46.4861 27.748 48.288 27.748 50.4497C27.748 52.4314 29.73 54.4132 32.0717 54.4132C34.4167 54.4164 36.3987 52.4314 36.3987 50.4497ZM47.2114 50.4497C47.2114 48.2848 45.2294 46.4861 42.8876 46.4861C40.5458 46.4861 38.5606 48.288 38.5606 50.4497C38.5606 52.4314 40.5426 54.4132 42.8876 54.4132C45.2294 54.4164 47.2114 52.4314 47.2114 50.4497ZM46.8516 32.071V12.4366H38.5606V32.6106C38.5606 35.132 36.9384 36.5742 34.5966 36.5742C31.8951 36.5742 27.7512 35.8515 25.5861 34.7723V13.8691C23.6041 12.7899 19.457 11.7107 15.1364 11.7107C5.04333 11.7107 0 18.9182 0 27.7446C0 38.1962 6.48887 42.3363 13.1544 42.3363C16.4152 42.3441 19.6081 41.4046 22.3448 39.6319C25.9491 41.437 30.4527 42.3363 34.7797 42.3363C41.805 42.3395 46.8516 39.9981 46.8516 32.071ZM247.229 36.2176C246.44 36.584 245.578 36.7684 244.708 36.7572C239.481 36.7572 238.762 31.888 238.762 27.2082C238.762 21.6194 239.841 16.7566 244.708 16.7566C245.43 16.7566 246.51 16.7566 247.229 17.1131V36.2176ZM91.3614 36.2176C90.5708 36.5842 89.7079 36.7686 88.8365 36.7572C83.6133 36.7572 82.8905 31.888 82.8905 27.2082C82.8905 21.6194 83.9699 16.7566 88.8365 16.7566C89.5561 16.7566 90.8185 16.7566 91.3614 17.1131V36.2176ZM17.2983 36.3911C16.3989 36.754 15.4962 37.1138 14.4169 37.1138C9.01054 37.1138 8.65076 31.5314 8.65076 27.3848C8.65076 23.2447 9.19043 16.5767 14.5968 16.5767C15.4994 16.5767 16.4021 16.7598 17.3015 17.1163V36.3911H17.2983ZM353.184 41.6169V16.217C353.184 12.2535 354.989 10.4516 352.644 6.66154C350.486 3.42071 353.184 0.899359 353.184 0.899359H361.472C361.472 0.899359 358.774 3.60379 361.115 6.66154C363.457 9.72892 361.472 12.7899 361.472 16.3904V41.6169H353.184Z" fill="white"/>
</svg>
