<svg width="287" height="286" viewBox="0 0 287 286" fill="none" xmlns="http://www.w3.org/2000/svg">
<path d="M0 143C0 64.0268 64.1249 0 143.237 0C222.342 0 286.469 64.0268 286.469 143C286.469 221.98 222.342 286 143.237 286C64.1249 286 0 221.978 0 143Z" fill="black"/>
<path d="M4.22266 143C4.22266 66.3559 66.4578 4.22034 143.234 4.22034C220.007 4.22034 282.246 66.3559 282.246 143C282.246 219.646 220.007 281.784 143.234 281.784C66.4578 281.782 4.22266 219.646 4.22266 143Z" fill="white"/>
<path d="M8.75073 143C8.75073 68.8523 68.9606 8.74323 143.237 8.74323C217.508 8.74323 277.718 68.8523 277.718 143C277.718 217.152 217.506 277.261 143.237 277.261C68.9583 277.261 8.75073 217.152 8.75073 143Z" fill="black"/>
<path d="M60.1067 142.434C60.1067 96.7669 97.1851 59.7492 142.922 59.7492C188.66 59.7492 225.736 96.7669 225.736 142.434C225.736 188.094 188.66 225.109 142.922 225.109C97.1851 225.109 60.1067 188.094 60.1067 142.434ZM156.017 20.5651C158.286 22.5962 158.929 25.2692 158.812 28.2332C158.171 30.3285 157.009 32.3596 155.142 33.8152C157.416 35.4978 159.687 37.2447 160.033 40.2638C160.676 43.2278 159.799 45.8985 158.111 48.1084C154.564 52.1155 148.918 51.0724 143.793 51.2421L130.261 51.5974L130.169 50.3687L128.778 19.6917L128.721 19.0224C137.625 18.9651 148.1 16.6658 156.017 20.5651ZM181.225 24.8909C178.834 31.7773 175.695 38.5788 174.001 45.8412C173.905 46.7797 174.153 47.721 174.7 48.4907C175.246 49.2604 176.053 49.8062 176.972 50.0271C178.403 50.8134 180.437 50.9601 181.512 50.0271C186.113 43.5786 188.297 35.5575 191.181 28.3203C194.845 29.6018 197.702 31.4311 201.254 32.7676C197.465 40.7887 195.137 50.2334 189.897 56.8264C186.115 60.1389 180.12 59.3228 175.583 58.2178C170.4 56.361 164.754 53.0508 163.184 47.2372C161.964 43.2576 167.494 29.5995 170.518 21.4386L181.225 24.8909Z" fill="white"/>
<path d="M97.3434 63.1074L89.6582 68.1576C86.7903 66.6492 85.1164 65.6314 83.0223 64.6731L74.515 71.8232C75.3898 73.9184 76.5058 76.4721 77.4357 78.7966L69.8377 87.2762L69.2269 85.9398L55.7783 54.0387L68.0605 43.4891L69.0501 44.1011C78.6871 49.9743 88.5904 56.8996 98.3514 62.4449L97.3434 63.1074ZM99.263 61.9383C95.2287 52.1154 90.2873 40.6419 86.6318 31.4287C95.8899 27.7082 109.279 18.5569 117.54 27.0732C119.635 29.3977 119.926 32.6506 119.984 35.6147C119.465 37.5288 118.992 39.4521 117.715 41.0201C120.477 44.4152 125.607 48.2687 129.154 51.6386L128.718 51.7853L118.241 54.0937C114.514 51.1021 112.404 48.9908 109.162 46.7718C107.763 46.9414 106.801 47.7598 105.488 48.3398L109.097 56.5947L99.263 61.9383Z" fill="white"/>
<path d="M146.938 25.9683C147.751 26.8348 147.581 28.6412 147.108 29.6293C145.6 31.3761 142.805 31.3119 140.477 31.0208C140.647 29.047 139.917 27.1283 140.064 25.0972C142.043 25.386 145.483 24.3957 146.938 25.9683ZM108.521 33.9848C109.098 35.4382 109.132 37.804 107.892 38.6659L102.131 41.105C100.694 38.4665 100.083 36.6578 99.0933 34.5121C101.768 33.5241 106.363 29.5147 108.521 33.9848ZM148.858 39.2161C149.319 41.254 148.394 43.3447 146.413 43.7528C144.55 44.0393 143.157 43.8674 141.175 43.9247C140.883 41.8294 140.713 39.0419 140.883 37.2974C143.558 37.6458 147.581 36.1947 148.858 39.2161Z" fill="black"/>
<path d="M227.435 50.552C229.416 52.9911 230.759 56.0125 231.63 59.0912C229.184 60.4025 227.322 61.8857 224.991 62.9287C224.415 59.325 222.434 55.6641 218.884 53.8645C217.196 52.8742 214.689 52.7 212.771 53.3396C209.8 54.4422 207.242 57.0005 206.135 59.9646C205.146 62.8118 206.25 65.5993 207.885 67.8069C210.151 70.3652 213.185 71.7063 216.608 71.8209C215.07 74.3472 214.229 75.9427 212.771 77.9233C207.063 77.1072 201.711 73.9689 198.452 68.6803C195.658 64.2079 195.486 57.3513 197.931 52.6427C200.489 47.4687 205.557 44.1562 211.022 43.3997C217.602 43.1682 223.538 45.7838 227.435 50.552Z" fill="white"/>
<path d="M76.2117 60.3131C74.5666 61.8273 72.8173 63.2245 70.9765 64.4944C69.5781 61.1819 68.2372 58.2179 66.7837 54.5569C70.1269 56.3335 73.0637 58.3921 76.2117 60.3131Z" fill="black"/>
<path d="M244.904 71.1218C242.229 73.7947 238.679 76.0642 235.82 78.6202C240.364 79.606 245.483 79.4317 250.142 80.1882C252.238 83.2142 253.342 86.1187 255.381 89.7773L238.268 88.5601C234.484 94.4859 231.051 100.529 227.788 106.688C225.754 103.724 224.186 99.8937 222.202 96.5812C224.418 92.1041 227.295 87.368 229.513 82.891C225.701 85.2476 222.353 88.2964 218.473 90.7356L212.427 82.6273C220.574 75.6538 229.364 69.4369 237.921 63.1075L238.615 62.8577L244.904 71.1218ZM52.7544 68.9738C51.2091 72.1694 49.1724 74.3472 47.7511 77.3984L67.6565 90.4719C66.6071 93.4337 64.3385 96.3451 62.4143 99.1876L41.9854 86.4602C40.1531 88.8718 38.8397 91.343 37.005 94.424C34.3277 92.6543 32.4357 91.4898 30.2842 89.9539C35.3518 81.5201 40.1531 73.6205 45.7396 64.8704L52.7544 68.9738Z" fill="white"/>
<path d="M108.758 146.7C108.793 148.078 108.653 149.454 108.34 150.796C105.256 157.016 100.253 162.474 99.4399 169.629C95.89 171.889 92.9739 175.843 87.9131 174.509C87.7363 175.843 88.145 177.872 88.6089 179.385C84.5952 179.215 81.8559 182.175 78.4782 183.571C76.6757 182.993 76.2096 180.664 75.5139 179.039C79.4679 177.705 82.3197 173.75 86.8615 173.814C87.3873 172.354 86.5676 171.02 86.3357 169.629C80.6871 167.125 71.7252 182.003 70.9721 169.104C76.616 168.755 80.2256 163.524 85.8167 163.001L85.9867 158.815C79.6424 158.176 75.5667 164.686 69.2247 164.044L67.824 158.469C75.158 158.93 79.5276 152.367 86.5125 152.014C87.4401 150.796 87.5572 148.992 87.7363 147.307C80.1108 146.317 74.8732 154.749 66.7816 152.188C66.7816 152.188 66.506 148.678 66.3545 146.698H108.758" fill="black"/>
<path d="M117.704 146.7C117.961 149.795 117.203 152.883 114.282 156.03C110.09 160.963 105.844 167.183 108.87 173.814C112.073 181.13 122.142 186.826 117.775 195.95C115.391 201.704 109.683 206.064 109.917 212.861C108.406 212.221 106.838 211.579 105.555 210.422C105.555 201.763 117.89 196.358 112.011 187.234C111.492 189.034 111.375 191.475 110.967 193.511C108.925 198.799 104.563 203.038 102.93 208.51C100.2 207.458 97.3436 205.25 95.0727 202.926L98.2207 201.005C97.8717 199.84 96.9371 198.854 96.122 197.866C94.0807 197.58 92.7444 198.914 91.059 199.439C89.6032 198.157 88.2025 196.995 87.043 195.427C88.0877 192.459 96.2391 194.907 92.1037 190.024C89.3116 188.282 86.5195 190.781 84.0741 191.945L80.7561 187.759C83.6079 186.017 86.4575 183.573 90.005 184.272C90.8799 185.845 90.9419 188.163 92.6272 188.983C98.6225 188.866 102.873 184.332 107.47 180.786C104.264 176.027 101.651 169.454 104.498 163.7C106.778 157.933 112.726 153.08 112.994 146.705H117.704" fill="black"/>
<path d="M126.234 146.7C126.532 149.359 126.094 152.087 124.234 154.978C120.454 160.099 115.506 165.495 117.772 172.237C119.926 179.039 128.427 183.163 127.903 191.069C127.846 200.422 116.957 206.238 120.043 216.698L114.631 214.952C112.48 205.656 122.374 200.892 122.489 192.291C123.887 182.406 111.249 178.743 112.007 169.104C111.954 161.779 118.413 157.13 121.265 150.971C121.723 149.595 121.922 148.148 121.853 146.7H126.234Z" fill="black"/>
<path d="M156.157 146.7C155.795 149.127 156.236 151.607 157.416 153.761C161.197 159.741 167.836 166.082 163.696 173.814C159.335 180.199 152.059 186.423 154.966 194.728C158.169 201.995 164.862 208.909 161.25 217.92L155.84 219.138C160.146 210.358 153.689 201.649 149.907 194.033C145.306 183.108 159.799 177.87 160.031 167.882C159.976 161.435 153.106 157.772 151.654 151.844C148.683 149.341 145.597 152.834 142.045 152.188C139.425 152.715 135.409 148.584 133.841 153.061C131.976 159.624 123.474 164.452 127.205 172.237C130.757 179.156 139.308 184.211 136.454 193.165C133.896 201.527 125.455 209.493 130.693 219.138C128.539 218.443 124.521 219.777 124.58 216.348C121.263 204.666 135.409 197.866 131.04 186.189C129.005 179.039 119.747 175.084 121.786 166.483C123.292 159.404 131.239 154.453 130.123 146.698H156.157" fill="black"/>
<path d="M164.573 146.7C164.46 148.687 164.862 150.664 166.146 152.539C170.164 159.049 177.149 166.199 173.133 174.683C168.593 181.48 160.676 188.396 165.096 197.348C168.3 202.694 173.25 208.035 171.914 214.608L166.672 216.35C170.164 204.09 153.048 196.878 160.212 184.619C164.637 178.051 172.55 171.889 168.072 163.173C165.395 157.775 159.863 154.577 160.036 147.83L160.224 146.702L164.573 146.7Z" fill="black"/>
<path d="M173.243 146.7C173.215 148.44 173.658 150.156 174.527 151.665C178.311 158.471 185.123 164.918 182.563 173.457C181.858 176.077 179.771 178.113 179.245 180.781C183.675 184.444 187.863 188.566 193.739 188.8C195.833 187.466 194.669 181.538 198.976 184.268L205.261 187.411C204.802 189.093 203.399 190.609 202.122 191.766C199.736 190.606 197.408 189.21 194.434 189.323C193.557 190.253 192.799 191.301 192.866 192.635C194.96 192.979 196.875 193.852 198.625 195.074C197.812 196.821 196.237 197.921 194.781 199.26L189.893 197.513C189.08 198.678 187.385 199.9 187.978 201.177C189.08 201.647 190.306 202.282 191.116 203.098C188.963 205.422 186.23 206.926 183.606 208.505C181.342 201.122 173.884 195.945 174.524 187.408L174.18 187.06C172.43 189.029 173.018 192.172 173.133 194.726C175.229 200.072 180.235 204.205 180.993 210.069C180.118 211.577 178.138 211.868 176.623 212.508C176.8 201.933 160.736 193.919 171.039 183.222C174.474 177.984 180.235 172.991 178.194 165.784C176.099 158.822 168.683 154.501 168.747 146.698H173.243" fill="black"/>
<path d="M219.763 146.7C219.82 148.665 220.002 150.354 219.233 152.369C211.258 154.634 206.021 146.207 198.282 147.479L199.153 151.844C206.312 152.078 210.794 158.932 218.188 158.636C217.139 160.732 218.654 166.252 214 164.044C209.169 162.884 205.674 158.636 200.377 158.636C199.738 159.806 200.142 161.435 200.03 162.822C205.616 163.696 209.632 168.407 215.217 169.278C214.691 171.194 214.167 173.338 212.597 174.507C208.053 173.402 204.505 169.331 199.669 169.447L198.804 173.455C203.401 173.571 206.372 177.64 210.503 178.858C210.615 180.55 209.107 182.058 208.234 183.569C204.569 182.468 201.773 179.328 197.582 179.562C197.522 177.984 198.455 176.189 198.101 174.507C193.394 175.903 190.244 171.543 186.758 168.922C186.657 160.353 177.622 154.726 177.144 146.698H219.763" fill="black"/>
<path d="M66.3568 146.7C66.3017 145.925 66.2581 145.389 66.2581 145.389C73.4772 148.183 79.8169 143.009 85.989 140.339C87.5596 139.869 90.0027 140.685 90.7076 138.942C90.6456 137.606 93.091 136.036 91.0566 135.105C82.0304 133.883 76.0374 144.754 66.7839 139.814L66.0813 138.418C68.0055 112.153 82.8479 86.7582 107.467 74.2624C129.471 61.7069 163.234 62.7568 183.955 77.4007C194.96 84.1403 205.493 95.2424 211.203 106.519C216.668 116.397 219.175 127.492 219.926 139.291C210.379 146.496 203.977 132.496 194.253 135.63C194.779 137.143 195.07 138.711 196.182 139.99C204.799 139.93 210.732 148.94 219.754 145.389L219.761 146.7H177.142C177.051 144.942 177.352 143.186 178.024 141.558C180.993 134.702 180.058 125.805 176.8 119.411C175.81 117.729 174.065 116.394 172.433 115.404C174.823 120.463 177.73 126.447 176.276 132.664C176.109 137.464 173.278 142.072 173.245 146.7H168.75L168.768 146.09C170.453 137.952 175.583 129.291 171.39 120.633C170.224 117.149 167.611 113.197 164.058 111.743C169.353 117.79 171.447 127.666 168.419 135.806C166.892 139.043 164.786 142.892 164.577 146.698H160.224C162.026 137.127 169.321 128.072 164.226 117.843C162.887 114.822 160.212 111.743 157.243 109.996L157.064 110.175C163.005 115.929 164.807 125.404 161.606 133.012C160.109 137.475 156.828 141.913 156.162 146.698H130.126C130.028 146.016 129.869 145.345 129.65 144.692C126.682 136.322 120.624 127.957 124.234 118.189C125.226 115.399 127.207 113.015 128.948 110.521C123.185 113.6 120.275 120.11 120.392 126.735C120.142 133.936 125.476 140.107 126.234 146.698H121.855C121.506 139.885 115.359 134.569 116.379 126.91C116.723 121.273 118.643 116.33 122.31 112.092C117.249 114.123 115.155 119.936 113.756 124.817C111.329 132.645 117.123 139.683 117.704 146.698H112.994C113.051 145.117 112.776 143.542 112.188 142.074C109.047 133.998 107.938 123.077 113.933 115.927C110.673 116.8 108.753 120.862 107.646 123.943C104.041 131.829 108.602 139.137 108.758 146.698H66.3568" fill="black"/>
<path d="M147.108 79.3148L156.541 79.8397L156.366 80.7131L149.381 87.3382C150.601 90.3045 151.824 93.2686 153.048 96.2258C158.346 93.1517 163.413 89.3142 169.815 88.9039C169.232 92.2783 166.671 95.8246 167.016 99.1899C170.977 98.0872 174.591 95.6481 178.898 95.8774C176.217 100.82 172.315 105.762 172.081 111.92C166.203 109.717 160.148 107.037 153.574 105.994C139.545 103.607 126.036 106.688 114.45 112.27C113.462 106.402 110.613 101.285 107.118 96.4046C109.212 95.7077 111.772 96.8654 113.931 97.4545C115.736 97.9726 117.249 99.1922 119.171 99.5452C119.515 96.0585 117.483 92.629 116.03 89.4311C117.019 88.6746 118.59 89.2523 119.697 89.6076C124.291 91.3476 128.427 94.0778 132.619 96.5811C134.771 94.0778 135.581 90.4742 136.456 87.1617L129.301 80.7131V80.0185L138.729 79.4913C140.298 76.5295 141.347 73.3912 142.92 70.4271C144.842 73.0428 145.482 76.4722 147.108 79.3148Z" fill="white"/>
<path d="M150.426 98.3188L149.558 99.1899C145.191 98.7268 140.594 99.3045 136.456 99.3687C135.992 98.9033 135.065 98.2042 135.93 97.6219L142.569 92.5626C145.308 94.1397 148.215 96.1708 150.426 98.3188Z" fill="black"/>
<path d="M33.951 100.758C30.3391 103.552 27.7789 107.621 28.5389 112.268C28.9477 112.965 29.3518 114.008 30.284 114.182C33.1933 114.182 34.1829 111.049 35.5193 109.128C37.0921 105.641 40.1231 101.861 44.2539 101.457C47.8037 101.228 50.837 102.154 53.163 104.944C56.7128 109.189 56.0722 116.046 54.3868 120.988C52.8094 124.649 50.3662 128.363 46.8761 130.749L40.5869 126.912C44.022 124.535 47.6338 120.635 48.0976 116.278C48.0976 114.71 47.7532 112.617 45.8244 112.44C41.8107 113.605 41.4043 118.426 38.6696 121.158C36.5755 123.311 33.9533 124.934 30.633 124.468C27.547 124.292 24.9248 122.378 23.1223 119.936C19.6873 114.71 21.3749 107.032 23.4713 103.027C24.7549 100.758 26.2703 98.4931 28.3644 96.7463C30.1072 97.7389 32.1485 99.2519 33.951 100.758ZM262.017 105.299C265.041 110.177 266.212 116.626 264.637 122.556L258.176 122.208C259.053 118.313 259.691 113.433 256.954 110.177C256.141 109.189 254.685 108.605 253.636 109.13C250.086 113.082 253.935 118.781 251.721 123.253C250.669 125.291 249.099 127.73 246.828 128.654C243.156 130.05 238.617 129.353 235.822 126.564C230.355 120.867 227.791 112.032 231.288 104.595H238.096C236.932 107.507 236.123 111.629 237.225 115.058C237.804 116.511 238.504 118.37 240.197 118.893C245.783 119.095 241.997 111.106 243.336 107.383C243.861 104.595 245.372 101.691 248.222 100.41C253.459 97.8535 259.576 100.758 262.017 105.299ZM90.7075 116.278C96.3514 114.125 104.034 110.409 110.089 114.361C108.806 116.161 106.31 117.151 104.498 118.717C101.534 121.621 97.9243 125.163 95.7728 128.826C88.4963 127.37 82.6709 131.621 76.5608 134.06C74.2325 134.52 71.1465 134.754 69.2269 133.186C74.9903 123.71 83.1347 114.994 81.1004 102.5C81.741 101.395 82.8454 102.328 83.5435 102.677C88.0302 106.163 90.1817 110.989 90.7075 116.278ZM205.612 103.899C203.346 115.753 211.49 124.124 216.962 133.189C210.68 137.375 204.735 130.919 198.802 129.351C196.182 128.948 193.1 128.595 190.59 129.003C186.988 123.428 182.154 118.194 176.274 115.058C176.621 113.144 179.298 113.02 181.165 112.789C186.345 112.27 190.884 114.418 195.135 116.628C195.95 114.714 196.299 112.559 196.877 110.528C198.28 107.099 201.02 103.607 204.569 102.159C205.323 102.273 205.846 103.089 205.612 103.899ZM157.062 114.712C157.241 115.698 158.228 116.571 157.588 117.676C154.153 116.626 150.256 117.206 146.936 118.542C143.965 120.75 144.431 125.289 145.188 128.48L146.063 129.181C147.517 128.831 147.579 126.974 148.855 126.564C151.012 127.089 153.978 127.847 156.015 126.564C157.817 126.623 157.765 129.12 157.934 130.401C156.655 137.143 153.804 144.465 146.936 147.661C144.082 149.057 140.412 148.121 137.678 147.136C130.927 143.126 127.143 135.165 127.901 127.962C128.426 126.857 129.242 125.984 130.525 126.74C133.253 128.597 136.222 125.289 138.729 127.607C141.753 126.27 139.951 122.556 139.951 119.767C137.508 116.626 133.315 117.089 129.65 117.323C128.018 116.333 129.767 114.767 130.169 113.662C134.13 108.084 141.701 107.97 148.33 108.781C151.71 109.652 155.436 111.106 157.062 114.712Z" fill="white"/>
<path d="M136.805 122.728V123.43C134.828 123.253 131.63 121.277 129.823 123.776C128.661 124.294 128.486 122.957 128.603 122.206C128.547 122.022 128.529 121.829 128.552 121.639C128.576 121.448 128.639 121.265 128.738 121.1C128.837 120.936 128.97 120.794 129.127 120.684C129.285 120.575 129.464 120.499 129.653 120.463C132.383 119.824 135.469 120.635 136.805 122.728ZM157.588 121.855C157.533 122.556 157.705 123.368 156.89 123.776C154.676 122.905 151.59 121.683 149.379 123.43C148.095 120.697 151.652 121.277 152.871 120.466C154.678 120.401 156.775 120.349 157.588 121.855Z" fill="white"/>
<path d="M146.41 133.014C145.365 135.222 141.988 133.828 140.123 134.232C139.489 133.998 139.889 133.305 139.774 132.84C141.639 131.559 144.957 131.389 146.41 133.014ZM149.202 137.899C147.813 139.99 145.714 142.601 142.922 142.434C139.774 142.665 139.078 140.107 136.805 138.596L136.635 137.544C140.828 138.186 145.425 137.377 149.202 137.899Z" fill="black"/>
<path d="M40.4102 165.094C43.9371 165.076 47.3216 165.211 50.9634 165.126L42.8602 171.891C43.6409 174.738 44.316 178.012 45.3033 181.831L37.2691 176.251C33.8914 177.792 31.857 179.681 28.3668 181.48L31.159 171.889C28.5069 169.723 25.5426 167.666 23.0352 165.459C26.6906 165.365 29.8915 165.511 33.4253 165.44C35.0578 162.391 35.7857 158.898 37.2691 155.849L40.4102 165.094ZM81.7985 210.947C82.5011 212.629 83.5137 213.964 83.9454 216.49C82.0855 217.659 79.7342 218.617 77.608 219.665C77.0891 215.827 73.7091 212.107 69.9273 211.116C66.7862 210.337 63.3511 211.82 61.0251 214.608C59.1009 216.868 58.5177 220.128 59.1009 222.975C60.6164 226.92 64.8069 229.9 69.0548 229.9L70.2764 229.937C69.397 232.113 68.3474 234.216 67.1375 236.227C60.0906 235.989 52.9909 231.863 50.3686 225.061C48.1 219.546 49.092 212.396 52.6418 207.802C56.9494 202.343 63.8196 200.83 70.4555 202.227C74.9284 203.451 79.1212 206.818 81.7985 210.947ZM217.481 207.288L217.922 207.719L207.444 217.457L210.937 221.666C213.903 219.342 217.109 216.87 220.28 213.911C221.91 215.277 223.224 216.87 224.762 218.679C221.623 221.666 218.358 223.702 215.626 226.551C216.79 228.007 217.688 229.657 219.462 231.404L230.76 222.104L235.586 227.074C229.184 233.144 222.202 239.396 215.566 244.244L195.83 218.789C202.12 213.556 207.415 208.792 212.946 203.27C214.636 204.379 215.86 205.828 217.481 207.288ZM106.423 228.731C109.972 233.263 110.03 240.292 107.816 245.464C105.348 250.725 100.602 254.069 95.4193 255.229C89.1393 256.215 83.1991 254.186 78.6573 249.831C74.6436 245.411 72.4301 239.077 74.4645 232.919C76.2693 226.235 82.7881 221.354 89.486 220.541C96.4089 220.13 102.813 223.326 106.423 228.731Z" fill="white"/>
<path d="M99.0907 232.917C101.063 237.506 98.7944 242.039 95.5936 245.291C93.5592 246.917 90.8934 247.942 88.2183 246.953C86.5329 246.14 84.4503 244.652 83.9842 242.848C82.7007 238.201 84.8292 233.843 88.0852 230.648C90.0644 229.018 92.9186 228.092 95.4168 229.252C96.9323 229.715 98.6199 231.404 99.0907 232.917Z" fill="black"/>
<path d="M168.593 240.292C163.696 240.996 159.018 241.578 154.355 242.334C154.826 244.627 154.617 246.163 154.968 247.909C159.335 247.825 163.149 247.05 167.225 246.525L168.416 253.98C164.27 254.75 160.093 255.352 155.898 255.784C156.015 259.151 156.463 263.275 156.41 266.996C152.977 267.521 149.271 267.897 145.719 267.663L143.625 235.879L143.597 235.212C151.435 234.465 159.246 233.466 167.018 232.216C167.342 234.6 168.07 237.353 168.593 240.292ZM195.3 226.003L195.594 226.549L182.807 232.951L184.972 237.97C188.873 236.484 192.241 235.099 196.117 233.144C197.3 234.916 198.11 236.812 199.084 238.974C195.569 240.844 191.929 242.295 188.097 243.976C188.809 245.695 189.167 246.949 190.418 249.707L203.876 243.944L207.116 250.073C199.263 254.103 190.804 258.143 183.066 260.939L171.28 230.982C178.786 227.723 185.213 224.63 192.069 220.887C193.385 222.418 194.15 224.156 195.3 226.003ZM138.824 243.905C133.953 243.091 129.306 242.222 124.642 241.523C124.383 243.852 123.724 245.257 123.529 247.02C127.715 248.265 131.581 248.687 135.623 249.425L134.486 256.898C130.3 256.369 126.136 255.672 122.006 254.807C121.093 258.049 120.271 262.118 119.088 265.648C115.653 265.102 112.004 264.332 108.693 263.028L116.376 232.117L116.558 231.477C124.3 233.149 132.231 234.607 139.783 235.734C139.361 238.103 139.214 240.954 138.824 243.905ZM251.992 165.142C255.512 165.128 258.658 165.222 262.538 165.179L254.442 171.944C255.23 174.786 255.898 178.06 256.881 181.884L248.853 176.299C245.469 177.835 243.437 179.729 239.944 181.528L242.739 171.941C240.089 169.78 237.118 167.714 234.624 165.507C238.27 165.413 241.473 165.559 245.005 165.488C246.431 162.313 247.45 159.265 248.853 155.897L251.992 165.142Z" fill="white"/>
<path d="M237.726 263.172C242.277 263.172 246.178 266.705 246.178 271.498C246.178 276.335 242.28 279.866 237.726 279.866C233.129 279.866 229.23 276.335 229.23 271.498C229.23 266.705 233.129 263.172 237.726 263.172ZM237.726 264.523C233.85 264.523 230.854 267.516 230.854 271.498C230.854 275.57 233.853 278.518 237.726 278.518C241.559 278.518 244.555 275.572 244.555 271.498C244.553 267.516 241.559 264.523 237.726 264.523ZM235.944 276.335H234.459V266.705H238.153C240.452 266.705 241.579 267.56 241.579 269.449C241.579 271.182 240.495 271.925 239.053 272.103L241.802 276.335H240.181L237.611 272.149H235.942L235.944 276.335ZM235.944 270.937H237.703C239.506 270.937 240.091 270.416 240.091 269.359C240.091 268.438 239.641 267.92 237.951 267.92H235.944V270.937Z" fill="white"/>
</svg>
