<svg width="509" height="100" viewBox="0 0 509 100" fill="none" xmlns="http://www.w3.org/2000/svg">
<path d="M73.8439 89.9884L72.3317 99.9374H0C2.99282 93.0545 2.8038 89.175 2.8038 84.2005V15.8088C2.8038 10.9907 2.99282 6.76706 0 0.0718072H70.5676L70.6936 10.2085C69.3704 9.67668 68.2993 9.20738 67.3227 8.76938C64.7079 7.7995 61.4001 6.8922 57.9662 6.92349H19.2801V46.0313H64.6764L62.4397 53.7277H19.2801V92.8667H60.2029C67.1022 92.9919 73.9699 89.1124 73.9699 89.1124L73.7809 89.9571C73.7809 89.9884 73.8124 89.9884 73.8439 89.9884ZM182.72 99.9374C183.696 95.0255 183.696 88.08 182.909 82.4171L176.482 35.3627L141.387 99.9061H134.708L99.0466 32.453L92.1159 83.4496C91.3598 89.3314 91.1393 96.7775 91.7693 99.9374H79.231C81.6567 94.8378 82.2553 92.6165 83.3894 84.2317L94.7306 0.0718072H100.496L142.112 78.6002L183.696 0.0718072H188.044L199.763 84.044C200.929 92.3974 201.811 94.8065 204.142 99.9374H182.72ZM288.35 99.9374L271.654 63.3638H238.071L221.595 99.9374H208.489C212.648 94.8065 214.065 92.4287 216.995 86.0463L255.933 0.0718072H260.312L298.62 83.6373C302.716 91.803 304.638 94.3372 310.497 99.9374H288.35ZM393.414 99.9374L376.717 63.3638H343.135L326.658 99.9374H313.553C317.712 94.8065 319.129 92.4287 322.059 86.0463L360.997 0.0718072H365.376L403.716 83.6373C407.811 91.803 409.733 94.3372 415.592 99.9374H393.414ZM488.617 100C478.568 90.8957 465.557 78.8192 449.27 59.6721C444.607 54.2595 441.331 53.5713 439.22 53.4461V84.2005C439.22 89.1437 439.22 93.0545 442.055 99.9374H419.94C422.933 93.0545 422.744 89.175 422.744 84.2005V15.7462C422.744 10.9281 422.933 6.70449 419.94 0.00923477H441.614C456.421 0.00923477 491.421 -1.30479 491.421 27.416C491.421 42.5898 479.292 50.7555 465.053 52.8204L460.831 53.2271C460.831 53.2271 507.015 98.0603 509 100H488.617ZM462.438 47.095L462.407 47.1263C471.732 43.6222 474.882 34.8308 474.567 27.3847C474.22 20.2201 470.975 4.6396 439.252 5.89104V48.4716C439.252 48.4716 457.019 49.4415 461.997 47.2827C462.281 47.1576 462.438 47.095 462.438 47.095ZM346.348 56.387H373.472L359.8 26.5712L346.348 56.387ZM241.316 56.387H268.44L254.768 26.5712L241.316 56.387Z" fill="white"/>
</svg>
