<svg width="284" height="100" viewBox="0 0 284 100" fill="none" xmlns="http://www.w3.org/2000/svg">
<path d="M1.55754 0.0789994C7.0811 -0.0614013 12.6085 0.0638209 18.1358 0.014491C20.6697 0.0410533 23.3061 -0.228365 25.7108 0.76203C29.0272 2.00287 32.0929 4.56044 33.1718 8.02113C34.3152 11.8916 33.7074 16.3086 31.3141 19.5947C29.1715 22.2016 25.8627 23.4083 22.6679 24.1482C22.9642 24.6453 23.2719 25.1424 23.648 25.5864C27.1164 29.6808 30.6645 33.7145 34.49 37.4825C41.1304 43.6905 49.807 46.8932 58.1607 50.0655C55.7902 51.6744 52.9525 52.5092 50.0881 52.494C45.0888 52.5471 40.2187 50.813 36.0399 48.1454C27.6672 42.9164 20.909 35.2779 16.1566 26.6755C15.45 26.6755 14.7472 26.6717 14.0406 26.6679C14.0216 30.4056 14.1394 34.1433 14.0862 37.881C14.1166 38.6399 14.0444 39.4368 14.3293 40.1577C15.4044 41.5428 17.4748 41.3986 18.6183 42.7153C17.9497 43.6146 17.5926 44.8023 16.734 45.5233C11.7423 45.5764 6.743 45.5233 1.74748 45.5461C1.07128 44.5557 0.474859 43.5198 0 42.4193C1.37139 41.7932 2.85675 41.3606 4.09139 40.4727C4.67641 40.0667 4.69921 39.3191 4.7068 38.6816C4.7106 28.9257 4.7068 19.1735 4.7144 9.41755C4.67641 8.27537 4.86636 7.07627 4.50926 5.97204C3.72289 4.29482 1.82726 3.64594 0.23553 2.97429C0.547038 1.95733 1.0181 0.993502 1.55754 0.0789994ZM14.1166 5.33454C13.9798 10.4421 14.0976 15.5534 13.8925 20.6572C15.8109 21.1353 18.0902 20.9456 19.5718 19.515C21.8435 17.4242 23.2491 14.3999 23.42 11.3224C23.553 9.56933 22.892 7.68341 21.3877 6.68163C19.2527 5.26624 16.5859 5.20552 14.1166 5.33454Z" fill="white"/>
<path d="M48.2647 7.65685C50.9353 7.02315 53.7996 7.34949 56.2803 8.50305C59.9348 10.3283 62.8258 13.6751 63.973 17.6025C65.3976 22.3458 64.7556 27.7569 61.9064 31.8589C60.4819 33.8397 58.6584 35.608 56.4399 36.6705C52.3903 38.6057 47.3643 38.0669 43.687 35.551C40.3288 33.4982 38.342 29.7377 37.7494 25.9279C37.3163 22.8087 37.4873 19.5416 38.6117 16.5742C40.2225 12.3432 43.839 8.80662 48.2647 7.65685ZM50.2591 11.5691C48.5154 12.2673 47.6113 14.1077 46.8857 15.7204C45.218 20.2436 45.3167 25.3891 46.9958 29.8933C47.6986 31.5781 48.7661 33.6575 50.8251 33.8245C52.489 34.0256 53.7123 32.5761 54.4758 31.2859C55.9954 28.3147 56.4361 24.8806 56.2803 21.5755C56.079 18.5891 55.3306 15.561 53.6781 13.0338C52.9715 11.9182 51.6001 11.053 50.2591 11.5691ZM67.2857 8.36645C71.4682 8.23363 75.6622 8.22984 79.8448 8.35127C80.1145 9.12157 80.3918 9.88808 80.6729 10.6546C79.9929 10.9733 79.3167 11.2921 78.6405 11.6184C79.5219 14.6162 82.0785 16.7449 83.5563 19.4467C85.3759 16.965 87.3703 14.5213 88.6126 11.6905C88.0701 11.3403 87.5082 11.0211 86.9297 10.7343C87.0398 9.94121 87.1652 9.14813 87.3096 8.35886C90.4968 8.24122 93.6955 8.20707 96.8865 8.36645C97.1828 9.15572 97.4868 9.93741 97.7945 10.7191C96.3129 11.2921 94.7212 11.8916 93.798 13.2729C91.9214 15.9405 90.0903 18.646 88.2175 21.3137C87.4045 22.5507 86.3598 23.7877 86.3181 25.3397C86.2611 27.6393 86.4054 29.935 86.4814 32.2345C87.3931 33.1756 88.6278 33.6689 89.737 34.3216C89.3078 35.035 88.8785 35.7484 88.4682 36.4693C84.6959 36.5187 80.9198 36.5035 77.1438 36.4883C76.7639 35.7635 76.3726 35.0426 75.9851 34.3216C77.0146 33.6613 78.3214 33.3388 79.142 32.4091C79.5105 30.8685 79.3471 29.233 79.4193 27.6507C79.5219 25.6851 78.291 24.0344 77.1779 22.5355C75.2367 19.811 73.2423 17.1244 71.3201 14.3885C70.283 12.6202 68.5317 11.4363 66.6019 10.8329C66.826 10.0095 67.0539 9.18608 67.2857 8.36645ZM108.355 8.3247C110.623 8.20707 112.895 8.20328 115.163 8.35506C117.211 14.4682 119.585 20.4713 121.735 26.5502C122.48 28.3868 122.977 30.3335 123.87 32.1055C124.702 32.9783 125.94 33.2553 127.027 33.6879C126.719 34.6745 126.351 35.6383 125.887 36.5604C122.347 36.458 118.806 36.5338 115.266 36.5566C114.958 35.6004 114.669 34.6403 114.384 33.6803C114.969 33.4299 115.55 33.1794 116.139 32.9328C116.189 31.3732 115.421 29.9768 114.859 28.5728C111.733 28.6448 108.61 28.5841 105.483 28.6107C105.069 29.6922 104.511 30.7281 104.264 31.8665C103.918 33.0694 105.392 33.3957 106.133 33.9687C105.776 34.8339 105.415 35.6952 105.058 36.5604C102.182 36.4314 99.3026 36.5718 96.4269 36.4921C96.104 35.5966 95.7469 34.7124 95.3708 33.8397C96.3015 33.4868 97.2816 33.2363 98.1554 32.7506C99.0481 32.17 99.3938 31.1151 99.7699 30.1741C102.596 22.877 105.571 15.6369 108.355 8.3247ZM107.045 24.7819C109.202 24.7819 111.356 24.7516 113.514 24.7668C112.466 21.9587 111.486 19.1242 110.407 16.3275C109.324 19.1583 108.036 21.9132 107.045 24.7819ZM132.474 10.4725C132.805 9.71733 133.177 8.97738 133.599 8.26399C137.356 8.32091 141.121 8.17672 144.878 8.35506C145.212 9.05706 145.714 9.71733 145.786 10.5104C144.813 11.33 142.986 11.3224 142.747 12.8251C142.682 18.388 142.766 23.9585 142.709 29.5252C142.716 30.379 142.709 31.2593 142.986 32.079C143.966 32.9214 145.349 32.7013 146.545 32.7203C150.246 32.6899 154.143 31.6616 156.761 28.9067C157.448 29.4986 158.124 30.1058 158.789 30.7243C157.456 33.1491 155.921 35.4524 154.47 37.805C152.703 38.3287 151.701 36.3289 150.01 36.4959C144.551 36.4883 139.092 36.4921 133.633 36.4959C133.15 35.732 132.696 34.9497 132.273 34.1508C133.61 33.4033 136 33.0542 135.741 31.0241C135.711 25.0817 135.779 19.1356 135.707 13.1932C135.681 11.4742 133.675 11.1517 132.474 10.4725ZM92.5482 44.4532C93.365 44.4304 94.1855 44.4342 95.0061 44.4494C96.8258 47.5951 98.7328 50.684 100.632 53.7841C99.7509 54.6873 98.8543 55.5714 97.9464 56.448C94.7819 52.9645 90.0637 51.1089 85.3797 51.2342C84.1603 51.3328 82.6483 51.0482 81.729 52.05C80.8591 52.9038 80.9464 54.2054 80.9122 55.321C80.9388 58.3491 80.8439 61.3772 80.973 64.4015C80.916 65.3539 81.7898 66.1508 82.7205 66.1128C84.0273 66.1546 85.3379 66.0787 86.6486 66.1053C87.245 65.6233 87.83 65.13 88.4036 64.6178C89.1824 64.6329 89.965 64.6557 90.7475 64.6861C92.552 67.7142 94.4704 70.674 96.3927 73.63C95.5531 74.5559 94.6528 75.4248 93.7373 76.2748C91.7694 74.423 89.7674 72.3777 87.1272 71.5315C85.4709 71.2204 83.7576 71.2545 82.0899 71.4443C81.03 71.4822 80.9616 72.7382 80.9312 73.5389C80.8856 78.9842 80.9122 84.4294 80.9274 89.8747C80.8135 91.2066 81.7138 92.7093 83.1384 92.8003C88.0275 93.1077 93.2928 93.305 97.7109 90.8347C99.2114 90.0986 100.283 88.7818 101.65 87.8636C102.452 88.8198 103.687 89.4876 104.215 90.6222C102.676 93.5175 100.864 96.2686 99.2266 99.1108C98.7974 100.28 97.4412 100.003 96.4725 99.8849C95.3898 99.1487 94.4325 97.9762 92.9851 98.0635C84.8745 98.0065 76.7563 98.1166 68.6457 98.0065C68.2772 97.0883 67.4072 96.2458 67.3426 95.2782C68.6723 93.9918 71.7607 93.8211 71.6544 91.3963C71.7304 79.0031 71.6848 66.6099 71.719 54.2167C71.7 53.2719 71.7342 52.2018 71.0428 51.458C70.0209 50.3652 68.6001 49.7808 67.2173 49.2875C67.6162 48.2516 68.091 47.246 68.6305 46.2746C75.495 46.119 82.3634 46.267 89.2242 46.2025C90.5462 46.2215 91.8416 45.5802 92.5482 44.4532ZM159.887 57.8292C160.974 57.9165 161.958 57.3435 162.531 56.4404C163.242 56.5314 164.279 56.2127 164.647 57.0399C165.927 59.1459 167.268 61.2216 168.499 63.3542C167.907 64.1776 167.097 64.7999 166.341 65.4602C163.925 62.8874 160.286 61.7642 156.821 61.8211C155.328 61.8667 153.611 61.5593 152.419 62.6787C152.434 64.0903 152.297 65.5095 152.506 66.9135C152.988 67.5168 153.824 67.6383 154.554 67.6497C156.423 67.8735 157.577 65.8965 159.481 66.1925C160.977 68.4921 162.425 70.8182 163.91 73.1253C163.185 73.7059 162.607 74.7076 161.756 74.996C160.51 73.9867 159.416 72.7496 157.912 72.0969C156.457 71.2773 154.755 71.3418 153.148 71.4443C152.996 71.5885 152.7 71.8731 152.548 72.0173C152.419 74.6773 152.506 77.3411 152.472 80.0011C152.438 80.7904 152.654 81.5531 152.943 82.2855C153.93 82.7294 154.911 83.2038 155.887 83.6819C155.485 84.4425 155.093 85.2078 154.709 85.9776C150.899 86.0649 147.077 86.137 143.267 85.9549C142.88 85.2187 142.488 84.4826 142.089 83.7502C142.997 83.3328 143.981 83.0482 144.813 82.4866C145.44 81.8301 145.299 80.8208 145.375 79.9897C145.379 74.2978 145.387 68.6021 145.368 62.9102C145.387 61.1305 143.328 60.7321 142.036 60.1667C142.427 59.3546 142.868 58.5654 143.366 57.8102C148.874 57.8482 154.383 57.814 159.887 57.8292ZM209.645 57.7913C210.617 57.8823 211.259 57.0741 211.909 56.4897L213.546 56.4214C214.975 58.7513 216.49 61.0281 217.885 63.3769C217.186 64.0979 216.46 64.7923 215.715 65.464C212.847 62.489 208.486 61.4682 204.475 61.8932C203.909 61.9881 203.437 62.341 202.944 62.6028C202.928 64.1283 202.932 65.6537 203.027 67.1791C204.478 67.7521 206.271 67.9722 207.559 66.9059C208.243 66.2646 209.166 66.2494 210.055 66.2419C211.51 68.5642 213.003 70.8599 214.462 73.1784C213.763 73.8538 213.045 74.5065 212.296 75.1288C210.481 73.2733 208.243 71.3039 205.477 71.3874C204.695 71.4632 203.578 71.228 203.126 72.0476C202.909 73.4289 203.023 74.8329 203.004 76.2255C203.042 78.0773 202.833 79.9632 203.305 81.7808C204.243 82.0236 205.212 82.1033 206.184 82.054C208.877 81.944 211.704 82.4297 214.26 81.3254C215.86 80.7449 217.174 79.6596 218.485 78.6161C219.355 78.5592 219.909 79.542 220.593 79.967C219.207 82.5056 217.714 84.991 216.175 87.4424C214.526 87.689 213.546 85.9966 211.955 86.0915C205.907 85.9928 199.859 86.175 193.815 85.9852C193.454 85.2415 193.089 84.5015 192.717 83.7654C193.697 83.2986 194.673 82.8167 195.65 82.3348C195.828 81.3141 195.954 80.2819 195.938 79.246C195.912 74.0626 195.931 68.8791 195.931 63.6919C195.889 62.9671 195.931 62.1323 195.437 61.5441C194.598 60.8687 193.53 60.5841 192.554 60.1705C192.975 59.3698 193.42 58.5805 193.883 57.7988C199.137 57.8406 204.391 57.8596 209.645 57.7913ZM225.938 57.8899C229.585 57.6547 233.259 57.9165 236.917 57.7685C237.491 58.4895 237.969 59.2825 238.239 60.1705C237.191 60.5651 236.169 61.0281 235.211 61.6086C234.892 67.4713 235.177 73.3568 235.067 79.2308C235.052 80.2857 234.9 81.8187 236.214 82.1603C240.735 82.6801 245.799 81.8529 249.077 78.4377C249.753 79.079 250.43 79.7203 251.106 80.3692C249.727 82.7105 248.211 84.9683 246.859 87.3247C246.338 87.3513 245.822 87.3816 245.305 87.412C244.454 86.7062 243.512 85.9625 242.33 86.0687C236.871 86.0573 231.412 86.0725 225.953 86.0687C225.49 85.2946 225.03 84.5243 224.578 83.7464C225.798 83.1431 227.154 82.7029 228.088 81.6556C227.974 75.273 228.111 68.8905 228.031 62.508C227.838 60.9636 225.946 60.7245 224.833 60.0415C225.144 59.2977 225.418 58.5198 225.938 57.8899ZM254.779 59.829C255.086 59.0227 255.454 58.2413 255.881 57.4915C259.319 57.6698 262.768 57.4649 266.21 57.6091C271.684 58.0265 277.352 60.2843 280.597 64.9024C282.978 68.2416 283.917 72.5902 282.94 76.5936C282.26 79.4016 280.919 82.221 278.507 83.9361C276.034 85.5982 272.98 86.1446 270.039 86.0801C265.378 86.0308 260.702 86.2167 256.044 85.989C255.456 85.4198 255.231 84.5736 254.855 83.8602C256.014 83.1468 258.069 82.8395 258.073 81.1471C258.073 74.9429 258.024 68.7387 257.967 62.5345C258.027 60.8004 256.006 60.4209 254.779 59.829ZM264.957 61.9691C265.044 68.5414 265.059 75.1212 264.957 81.6935C267.111 81.8643 269.409 82.0123 271.396 81.0067C273.474 79.9859 274.818 77.8534 275.217 75.6145C275.969 71.7099 275.122 67.3347 272.414 64.3256C270.605 62.2575 267.608 61.4606 264.957 61.9691ZM105.973 60.0642C106.361 59.3243 106.741 58.5767 107.121 57.833C110.331 57.9013 113.541 57.9089 116.747 57.8292C120.668 62.4662 124.242 67.3992 128.254 71.9565C128.322 68.845 128.383 65.722 128.242 62.6104C127.657 61.1912 125.952 60.77 124.717 60.068C125.108 59.3508 125.477 58.6223 125.815 57.8785C128.748 57.8937 131.684 57.8254 134.617 57.9165C134.993 58.664 135.4 59.4002 135.833 60.1211C134.397 60.8801 132.3 61.7187 132.429 63.6767C132.417 71.1179 132.482 78.5592 132.391 85.9966C131.137 86.0497 129.88 86.0649 128.626 86.0611C124.223 79.9859 119.782 73.9373 115.372 67.866C115.022 67.3205 114.52 66.8892 113.928 66.6251C113.719 70.9472 113.955 75.2768 113.83 79.6027C113.773 80.521 113.902 81.4355 114.198 82.312C115.171 82.8357 116.139 83.3745 117.116 83.9058C116.709 84.6154 116.356 85.3667 115.828 85.9966C112.933 86.0535 110.015 86.1598 107.128 85.9511C106.646 85.306 106.342 84.5471 105.992 83.8299C107.197 83.181 109.324 82.9116 109.267 81.1547C109.377 75.5918 109.275 70.0175 109.316 64.4508C109.252 63.5211 109.468 62.3714 108.678 61.6845C107.858 61.0243 106.889 60.5803 105.973 60.0642ZM172.746 60.1211C173.088 59.3395 173.472 58.5767 173.894 57.8368C177.594 57.8292 181.294 57.8292 184.998 57.8254C185.461 58.554 185.925 59.2825 186.384 60.0187C185.305 60.4778 184.249 60.9863 183.25 61.6011C183.068 62.5383 182.927 63.487 182.95 64.447C182.973 69.6267 182.965 74.8063 182.95 79.9897C182.988 80.7259 182.882 81.6518 183.543 82.1603C184.39 82.8205 185.378 83.2645 186.301 83.8033C185.902 84.5243 185.511 85.2453 185.134 85.9776C181.385 86.1446 177.628 86.0573 173.875 86.0383C173.476 85.2872 173.082 84.5334 172.693 83.7768C173.677 83.2683 174.775 82.8964 175.607 82.1337C175.899 81.6024 175.873 80.9763 175.903 80.392C175.869 74.5483 175.907 68.7084 175.869 62.8647C175.88 61.1988 173.977 60.6903 172.746 60.1211Z" fill="white"/>
</svg>
