<svg width="436" height="100" viewBox="0 0 436 100" fill="none" xmlns="http://www.w3.org/2000/svg">
<path d="M48.1664 15.5763V25.1243H9.27827V90.7034H75.0048V51.7571H84.2885V100H0V15.5763H48.1664ZM84.2885 0V15.5763H99.8394V25.1243H84.2885V40.7007H75.0048V25.1243H59.2034V15.5763H75.0048V0H84.2885ZM38.6322 78.1385V51.7571H29.8495V44.9746H30.8568C33.612 44.9746 35.8716 44.4718 37.3799 43.2147C38.8827 41.9577 39.8846 39.7005 39.8846 36.935H48.1664V78.1385H38.6322ZM110.882 58.0423C110.882 43.2147 120.16 32.1583 134.709 32.1583C149.264 32.1583 158.542 43.2147 158.542 58.0423C158.542 72.8644 149.264 83.6695 134.709 83.6695C120.16 83.6695 110.882 72.8644 110.882 58.0423ZM148.256 58.0423C148.256 48.2429 143.742 40.4493 134.709 40.4493C125.681 40.4493 120.912 48.2429 120.912 58.0423C120.912 67.8417 125.431 75.6299 134.709 75.6299C143.993 75.3785 148.256 67.8417 148.256 58.0423ZM167.074 33.1639H177.36L193.913 60.8023C195.421 63.5678 197.425 67.8417 197.425 67.8417H197.675C197.675 67.8417 197.425 62.8136 197.425 59.2939V33.1639H207.209V82.6638H197.425L180.365 55.2768C178.863 52.7627 176.853 48.4943 176.853 48.4943H176.603C176.603 48.4943 176.853 53.7684 176.853 57.0367V82.6638H167.074V33.1639ZM218.246 33.1639H254.624V41.4549H228.281V52.5113H251.363V60.8023H228.281V74.1214H254.875V82.6638H218.246V33.1639ZM286.483 33.1639C292.255 33.1639 296.518 34.9238 299.529 37.6892C302.284 40.4493 304.043 44.4718 304.043 48.9971C304.043 58.2937 297.771 64.5734 287.485 64.5734H275.446V82.4124H265.16V33.1639H286.483ZM274.945 56.5339H285.231C290.496 56.5339 293.257 53.517 293.257 49.2485C293.257 44.7232 290.246 41.9577 285.481 41.9577H274.945V56.5339ZM311.067 33.1639H321.102V74.1214H344.178V82.6638H311.067V33.1639ZM349.699 33.1639H359.735V66.8361C359.735 71.8588 362.245 75.6299 369.018 75.6299C375.285 75.6299 378.297 71.8588 378.297 66.8361V33.1639H388.332V66.8361C388.332 77.3843 381.809 83.6695 369.269 83.6695C356.223 83.4181 349.699 77.3843 349.699 66.5847V33.1639ZM405.14 67.3389C405.892 73.3672 409.153 75.6299 416.177 75.6299C421.192 75.6299 425.712 73.87 425.712 69.3447C425.712 64.5734 420.942 63.5678 413.417 61.8079C404.639 59.7967 396.358 57.5395 396.358 47.2373C396.358 37.4378 404.389 32.4097 415.176 32.4097C426.213 32.4097 433.487 37.9406 434.238 47.7401H424.704C424.203 42.7119 420.19 40.1978 415.176 40.1978C409.905 40.1978 406.142 42.4605 406.142 45.9802C406.142 49.9973 409.654 51.2543 416.929 52.7627C427.214 55.0254 435.496 57.2881 435.496 68.0877C435.496 78.1385 427.465 83.6695 416.177 83.6695C403.131 83.6695 395.606 77.6357 395.356 67.3389H405.14Z" fill="white"/>
</svg>
